<?xml version="1.0" encoding="UTF-8" standalone="no"?>
<!-- Created with Inkscape (http://www.inkscape.org/) -->

<svg
   xmlns:dc="http://purl.org/dc/elements/1.1/"
   xmlns:cc="http://creativecommons.org/ns#"
   xmlns:rdf="http://www.w3.org/1999/02/22-rdf-syntax-ns#"
   xmlns:svg="http://www.w3.org/2000/svg"
   xmlns="http://www.w3.org/2000/svg"
   xmlns:sodipodi="http://sodipodi.sourceforge.net/DTD/sodipodi-0.dtd"
   xmlns:inkscape="http://www.inkscape.org/namespaces/inkscape"
   id="svg3398"
   version="1.1"
   inkscape:version="0.91 r13725"
   width="750"
   height="562"
   viewBox="0 0 750 562"
   sodipodi:docname="panbutterfly.svg">
  <metadata
     id="metadata3404">
    <rdf:RDF>
      <cc:Work
         rdf:about="">
        <dc:format>image/svg+xml</dc:format>
        <dc:type
           rdf:resource="http://purl.org/dc/dcmitype/StillImage" />
        <dc:title></dc:title>
      </cc:Work>
    </rdf:RDF>
  </metadata>
  <defs
     id="defs3402" />
  <sodipodi:namedview
     pagecolor="#ffffff"
     bordercolor="#666666"
     borderopacity="1"
     objecttolerance="10"
     gridtolerance="10"
     guidetolerance="10"
     inkscape:pageopacity="0"
     inkscape:pageshadow="2"
     inkscape:window-width="1871"
     inkscape:window-height="1056"
     id="namedview3400"
     showgrid="false"
     inkscape:zoom="1.6352313"
     inkscape:cx="375"
     inkscape:cy="281"
     inkscape:window-x="49"
     inkscape:window-y="24"
     inkscape:window-maximized="1"
     inkscape:current-layer="svg3398" />
  <g
     id="g3408">
    <path
       style="fill:#fdd600"
       d="M 213.29096,559.92363 C 177.49316,552.40429 142.89191,533.98208 113.77627,506.94057 98.690079,492.92909 87.445547,474.51261 79.607577,450.97852 74.684048,436.19526 72.722583,423.99026 72.700499,408 c -0.01648,-11.93173 0.289012,-14.43846 2.629729,-21.57841 7.216627,-22.01308 21.327193,-34.2025 64.169772,-55.43308 20.5855,-10.20112 51.99836,-23.92217 68,-29.70222 8.01474,-2.89504 12.88626,-5.23336 12.24302,-5.8766 -0.24356,-0.24356 -15.47288,-0.88302 -33.84293,-1.42102 C 147.53105,292.86496 131.2086,291.71484 115,288.99286 90.631295,284.90052 80.062358,279.5471 70.106793,266.25338 62.555843,256.17056 60.518865,248.71849 56.510532,216.51291 51.793801,178.61561 47.589027,155.43913 43.537432,145.00592 41.720695,140.32766 36.528984,127.725 32.000296,117 20.245013,89.160722 6.1641908,54.679571 3.2107126,46.5 -3.5214489,27.855476 0.77472845,9.3635275 13.375791,2.7466628 23.844366,-2.750425 60.236226,0.55057309 76.5,8.4724732 79.25,9.811967 88.025,13.441464 96,16.538022 c 38.34376,14.888234 68.02496,32.291527 95.5,55.995523 12.26909,10.585114 51.53858,50.052445 65.63578,65.966455 36.29064,40.96768 68.20161,83.56148 84.42238,112.68442 8.92555,16.02504 8.32238,15.23398 10.27006,13.46917 0.91948,-0.83315 3.00432,-3.98024 4.63298,-6.99354 l 2.9612,-5.47872 -1.77901,-5.64368 c -2.12277,-6.7342 -1.58713,-10.07509 2.42468,-15.1233 C 361.68063,229.3852 363,226.5868 363,225.19568 363,219.9624 349.13118,196.90736 331,172 311.05588,144.60215 302.23244,129.50817 296.51058,113 288.96494,91.230051 287.00399,76.996008 291,73 c 2.25729,-2.257287 5.01793,-2.582068 6.8,-0.8 1.60714,1.607138 1.48692,7.781484 -0.31736,16.299626 -2.00926,9.485822 -1.88749,12.004864 1.00926,20.878824 5.08306,15.57152 13.25363,29.62738 33.48522,57.60473 17.99162,24.87981 24.21941,34.49829 30.74791,47.48851 l 5.51404,10.97169 2.39963,-4.72169 c 3.1694,-6.23635 5.61654,-6.30813 8.55928,-0.25109 l 2.17199,4.47061 5.65261,-10.72061 c 7.41414,-14.06148 12.25357,-21.50499 30.37555,-46.7206 18.05523,-25.12273 26.02534,-38.11025 31.08424,-50.65264 4.73471,-11.73861 5.45463,-19.30068 3.02723,-31.797919 -1.63092,-8.396644 -1.63851,-9.203752 -0.10854,-11.53879 2.09585,-3.198669 4.61383,-3.188155 7.63891,0.0319 3.49124,3.716251 3.12271,10.272401 -1.45167,25.825308 C 449.91072,125.47166 443.85292,137.10517 422.3709,167 c -18.60588,25.89234 -25.90354,36.97926 -30.76486,46.73935 -6.24896,12.54602 -6.22263,12.33341 -2.13311,17.22825 3.92416,4.69691 4.40292,8.08544 2.38036,16.84766 -1.11263,4.82017 -1.03686,5.16428 2.54894,11.57629 2.03261,3.63465 4.08433,6.60845 4.55939,6.60845 0.47505,0 3.6654,-5.0625 7.08965,-11.25 C 433.35252,205.41773 495.69785,129.93946 551,79.268053 584.97261,48.140156 621.77452,26.99746 670,10.902564 c 9.625,-3.2122728 20.2,-6.843688 23.5,-8.0698119 5.25318,-1.95183291 7.99152,-2.2357534 22,-2.28103408 17.8397,-0.0576646 20.67169,0.68664278 27.11016,7.12511078 4.14472,4.1447142 7.3999,14.1699782 7.36368,22.6785062 -0.0329,7.732796 -7.09435,28.738916 -18.87362,56.144665 -8.43038,19.61419 -22.25345,55.07326 -25.92383,66.5 -5.33399,16.60598 -7.71579,29.28918 -12.11258,64.5 -4.12445,33.02994 -6.30027,40.41951 -15.13685,51.4082 -14.12579,17.56607 -37.58307,22.84407 -111.42696,25.07161 -18.15,0.5475 -33.81406,1.00102 -34.80902,1.00782 -3.58088,0.0245 -0.48834,1.93501 9.07354,5.6055 18.3726,7.05264 53.7491,22.55369 72.73548,31.87078 40.89647,20.06891 56.57564,35.03869 62.4753,59.64864 2.39844,10.00495 2.52944,17.93032 0.5188,31.38745 -4.37271,29.26635 -17.10993,58.44382 -33.50481,76.75034 -10.89963,12.17052 -34.5112,29.96168 -53.98929,40.68057 -14.70003,8.08949 -42.49534,17.73141 -58.09085,20.15114 -3.66699,0.56895 -15.83418,0.89574 -27.0382,0.7262 L 483.5,561.5 l -6.77526,-3.20928 c -4.07074,-1.92821 -8.66128,-5.15238 -11.5,-8.07704 -14.89487,-15.34574 -67.00458,-119.03921 -75.21127,-149.66342 -1.15528,-4.31106 -2.77338,-9.01098 -3.59577,-10.44427 -1.33712,-2.33038 -1.41184,1.20145 -0.70648,33.39401 1.16378,53.11522 0.95822,65.28508 -1.17425,69.51939 -2.44667,4.85821 -5.39351,6.93242 -9.88576,6.95837 -4.863,0.0281 -8.90678,-3.96429 -10.52514,-10.39138 -1.53568,-6.09872 -1.3884,-29.17337 0.37393,-58.58638 1.68532,-28.1276 1.8881,-42.64211 0.60683,-43.43397 -1.36792,-0.84543 -4.81995,7.33724 -6.12008,14.50703 -2.179,12.01646 -33.6284,80.74557 -51.90246,113.42694 -18.65878,33.36942 -27.29841,42.58962 -42.54967,45.40897 -9.99556,1.84778 -40.55319,1.2602 -51.24366,-0.98534 z"
       id="path3422"
       inkscape:connector-curvature="0" />
    <path
       style="fill:#8fc37e"
       d="M 213.29096,559.92363 C 177.49316,552.40429 142.89191,533.98208 113.77627,506.94057 98.690079,492.92909 87.445547,474.51261 79.607577,450.97852 74.684048,436.19526 72.722583,423.99026 72.700499,408 c -0.01648,-11.93173 0.289012,-14.43846 2.629729,-21.57841 6.31995,-19.27792 17.845124,-30.69428 47.379512,-46.93219 l 11.61633,-6.38662 3.255,7.95182 c 4.66733,11.40207 14.30338,29.39564 21.9639,41.0136 34.6394,52.53421 85.16863,89.43841 146.95503,107.32911 8.16955,2.36555 11.90173,3.89412 11.69215,4.78869 -0.53433,2.28066 -15.20441,28.89568 -21.57831,39.14819 -11.20761,18.0276 -19.67374,25.31332 -32.0475,27.57923 -10.0649,1.8431 -40.59428,1.25378 -51.27538,-0.98979 z m 266.37401,-0.37029 c -8.09724,-3.32934 -13.31798,-7.17291 -17.71435,-13.0415 -5.1653,-6.895 -16.91911,-26.54972 -24.64264,-41.20738 l -6.42617,-12.19555 4.3091,-1.11568 c 21.32356,-5.52097 38.21145,-11.80147 56.30909,-20.94101 41.18058,-20.79672 74.03512,-50.06536 99.99887,-89.08455 8.19053,-12.309 23.61029,-42.25741 23.85338,-46.32827 l 0.14775,-2.47433 8.74584,4.51656 c 22.98284,11.86887 38.80822,25.26818 45.98646,38.93662 4.45205,8.47736 7.75327,21.41087 7.7548,30.38175 0.002,14.50914 -4.82164,36.74175 -11.71714,54 -9.56305,23.93469 -19.0862,37.20021 -38.10025,53.07275 -25.68496,21.44128 -49.22623,34.03096 -80.54061,43.07246 -14.58283,4.21054 -20.09218,4.84133 -42.1291,4.8235 -18.80121,-0.0152 -20.34975,-0.15999 -25.83503,-2.41537 z M 372.75,499.29427 c 1.2375,-0.23836 3.2625,-0.23836 4.5,0 1.2375,0.23835 0.225,0.43337 -2.25,0.43337 -2.475,0 -3.4875,-0.19502 -2.25,-0.43337 z M 367.87244,497.25 c -1.24387,-1.58606 -1.2085,-1.62143 0.37756,-0.37756 1.66575,1.30637 2.19548,2.12756 1.37244,2.12756 -0.20765,0 -0.99515,-0.7875 -1.75,-1.75 z m -4.79349,-11.83333 c 0.048,-1.16495 0.28494,-1.4019 0.60416,-0.60417 0.28887,0.72187 0.25335,1.58438 -0.0789,1.91667 -0.33229,0.33229 -0.56864,-0.25834 -0.52522,-1.3125 z M 386.37817,471 c 0,-6.325 0.16237,-8.9125 0.36082,-5.75 0.19845,3.1625 0.19845,8.3375 0,11.5 -0.19845,3.1625 -0.36082,0.575 -0.36082,-5.75 z m -23.18322,-19.5 c 0.0204,-1.65 0.2445,-2.20394 0.49804,-1.23097 0.25354,0.97297 0.23687,2.32297 -0.0371,3 -0.27393,0.67703 -0.48137,-0.11903 -0.46099,-1.76903 z m 1,-18 c 0.0204,-1.65 0.2445,-2.20394 0.49804,-1.23097 0.25354,0.97297 0.23687,2.32297 -0.0371,3 -0.27393,0.67703 -0.48137,-0.11903 -0.46099,-1.76903 z m 21.07741,-3.5 c 0,-2.475 0.19502,-3.4875 0.43337,-2.25 0.23836,1.2375 0.23836,3.2625 0,4.5 -0.23835,1.2375 -0.43337,0.225 -0.43337,-2.25 z m -20.07741,-14.5 c 0.0204,-1.65 0.2445,-2.20394 0.49804,-1.23097 0.25354,0.97297 0.23687,2.32297 -0.0371,3 -0.27393,0.67703 -0.48137,-0.11903 -0.46099,-1.76903 z M 384.34941,397 c 0,-4.675 0.17226,-6.5875 0.3828,-4.25 0.21053,2.3375 0.21053,6.1625 0,8.5 -0.21054,2.3375 -0.3828,0.425 -0.3828,-4.25 z M 351.59708,368.39337 C 312.76793,361.38137 277.47363,334.93751 259.64594,299.5 249.94455,280.21579 246,263.16101 246,240.5 c 0,-22.66759 3.94849,-39.7338 13.65043,-59 4.21834,-8.37683 12.22196,-20.68507 14.27645,-21.95481 1.95313,-1.2071 36.90956,43.58925 53.0876,68.03127 4.83898,7.31081 11.38364,17.93439 14.54368,23.60796 8.92555,16.02504 8.32238,15.23398 10.27006,13.46917 0.91948,-0.83315 3.00432,-3.98024 4.63298,-6.99354 l 2.9612,-5.47872 -1.77901,-5.64368 c -2.12277,-6.7342 -1.58713,-10.07509 2.42468,-15.1233 C 361.68063,229.3852 363,226.5868 363,225.19568 363,219.9624 349.13118,196.90736 331,172 c -8.63934,-11.86812 -20.28568,-29.20219 -24.28794,-36.14945 -2.34799,-4.07571 -2.47782,-4.72646 -1.05216,-5.27354 0.8945,-0.34325 1.71115,-0.50099 1.81479,-0.35055 0.10364,0.15045 2.344,3.87354 4.97858,8.27354 2.63457,4.4 11.4283,17.225 19.5416,28.5 18.70313,25.99158 24.48967,34.94401 31.0067,47.97087 l 5.23834,10.47087 2.39921,-4.72087 c 3.16897,-6.2355 5.61624,-6.30706 8.55886,-0.25027 l 2.17199,4.47061 5.65261,-10.72061 c 7.4019,-14.03826 12.23192,-21.47082 30.36118,-46.7206 8.29286,-11.55 17.59119,-25.12185 20.66295,-30.15967 4.64759,-7.62226 5.75917,-8.88081 6.62262,-7.49821 1.38804,2.22261 -5.78768,14.17599 -22.33757,37.21012 -18.57353,25.85063 -25.86834,36.93494 -30.72572,46.68711 -6.24896,12.54602 -6.22263,12.33341 -2.13311,17.22825 3.92416,4.69691 4.40292,8.08544 2.38036,16.84766 -1.11263,4.82017 -1.03686,5.16428 2.54894,11.57629 2.03261,3.63465 4.08433,6.60845 4.55939,6.60845 0.47505,0 3.66117,-5.0625 7.08026,-11.25 7.8916,-14.28138 23.86455,-38.32408 37.14364,-55.90912 16.52509,-21.88361 33.24666,-41.94217 33.80489,-40.55106 0.28028,0.69842 2.60601,4.18143 5.1683,7.74002 9.80179,13.61303 18.27552,34.05007 21.29334,51.35553 2.0211,11.58983 2.0211,34.63943 0,46.22926 -9.19976,52.75534 -52.08208,95.63766 -104.83742,104.83742 -11.12108,1.93935 -36.1262,1.90815 -47.01755,-0.0587 z M 207.76166,294.29274 c 1.24391,-0.23919 3.04391,-0.23011 4,0.0202 0.95609,0.25029 -0.0617,0.446 -2.26166,0.4349 -2.2,-0.0111 -2.98225,-0.21589 -1.73834,-0.45508 z m 331.50209,-0.0103 c 1.52006,-0.22986 3.77006,-0.22371 5,0.0136 1.22994,0.23736 -0.0137,0.42542 -2.76375,0.41792 -2.75,-0.008 -3.75631,-0.20172 -2.23625,-0.43157 z m -370,-1 c 1.52006,-0.22986 3.77006,-0.22371 5,0.0136 1.22994,0.23736 -0.0137,0.42542 -2.76375,0.41792 -2.75,-0.008 -3.75631,-0.20172 -2.23625,-0.43157 z m 408.48625,0.0118 c 1.2375,-0.23836 3.2625,-0.23836 4.5,0 1.2375,0.23835 0.225,0.43337 -2.25,0.43337 -2.475,0 -3.4875,-0.19502 -2.25,-0.43337 z m -430,-0.95655 c 0.6875,-0.27741 1.8125,-0.27741 2.5,0 0.6875,0.27741 0.125,0.50439 -1.25,0.50439 -1.375,0 -1.9375,-0.22698 -1.25,-0.50439 z m 452.51903,-0.0307 c 0.97297,-0.25354 2.32297,-0.23687 3,0.0371 0.67703,0.27393 -0.11903,0.48137 -1.76903,0.46099 -1.65,-0.0204 -2.20394,-0.2445 -1.23097,-0.49804 z m -465.45653,-0.9901 c 0.72187,-0.28887 1.58437,-0.25335 1.91667,0.0789 0.33229,0.33229 -0.25834,0.56864 -1.3125,0.52522 -1.16495,-0.048 -1.4019,-0.28494 -0.60417,-0.60416 z m 479,0 c 0.72187,-0.28887 1.58438,-0.25335 1.91667,0.0789 0.33229,0.33229 -0.25834,0.56864 -1.3125,0.52522 -1.16495,-0.048 -1.4019,-0.28494 -0.60417,-0.60416 z m -489,-1 c 0.72187,-0.28887 1.58437,-0.25335 1.91667,0.0789 0.33229,0.33229 -0.25834,0.56864 -1.3125,0.52522 -1.16495,-0.048 -1.4019,-0.28494 -0.60417,-0.60416 z m 499,0 c 0.72187,-0.28887 1.58438,-0.25335 1.91667,0.0789 0.33229,0.33229 -0.25834,0.56864 -1.3125,0.52522 -1.16495,-0.048 -1.4019,-0.28494 -0.60417,-0.60416 z M 110.77124,288.47303 C 89.705075,284.2808 79.383916,278.64117 70.106793,266.25338 62.555843,256.17056 60.518865,248.71849 56.510532,216.51291 51.793801,178.61561 47.589027,155.43913 43.537432,145.00592 41.720695,140.32766 36.528984,127.725 32.000296,117 20.245013,89.160722 6.1641908,54.679571 3.2107126,46.5 -3.5214489,27.855476 0.77472845,9.3635275 13.375791,2.7466628 23.844366,-2.750425 60.236226,0.55057309 76.5,8.4724732 79.25,9.811967 88.025,13.441464 96,16.538022 c 29.22367,11.34706 57.73938,26.609566 77.58534,41.526123 5.14593,3.867764 9.61098,7.444497 9.92235,7.948296 0.31136,0.503799 -2.19929,4.194599 -5.57923,8.201778 C 136.92167,122.83095 114.88956,186.57329 117.34212,249.5 c 0.53925,13.83583 2.37993,30.75548 4.16121,38.25 0.63608,2.67625 -0.52421,2.75442 -10.73209,0.72303 z m 518.7087,-0.65639 c 1.79551,-7.54223 3.63661,-24.4273 4.17794,-38.31664 C 636.02597,188.74075 615.71348,127.57954 577.10124,79.207038 567.56651,67.262162 566.51541,66.327355 564.5,68 563.675,68.684689 563,68.990951 563,68.680581 563,67.601195 585.55828,51.190348 594.65089,45.654982 618.38101,31.208651 642.53166,20.06992 670,10.902564 c 9.625,-3.2122728 20.2,-6.843688 23.5,-8.0698119 5.25318,-1.95183291 7.99152,-2.2357534 22,-2.28103408 17.8397,-0.0576646 20.67169,0.68664278 27.11016,7.12511078 4.14472,4.1447142 7.3999,14.1699782 7.36368,22.6785062 -0.0329,7.732796 -7.09435,28.738916 -18.87362,56.144665 -8.43038,19.61419 -22.25345,55.07326 -25.92383,66.5 -5.33399,16.60598 -7.71579,29.28918 -12.11258,64.5 -1.64828,13.2 -3.69667,26.7 -4.55197,30 -3.76799,14.53812 -13.21758,27.00854 -25.25811,33.33258 -6.08223,3.19457 -19.87795,7.21567 -29.53951,8.61002 -4.63461,0.66886 -4.76835,0.6175 -4.23428,-1.62596 z M 480,152.62244 c 0,-0.20765 0.7875,-0.99515 1.75,-1.75 1.58606,-1.24387 1.62143,-1.2085 0.37756,0.37756 C 480.82119,152.91575 480,153.44548 480,152.62244 Z M 266.40499,149.75 264.5,147.5 l 2.25,1.90499 c 1.2375,1.04774 2.25,2.06024 2.25,2.25 0,0.80025 -0.80479,0.20945 -2.59501,-1.90499 z M 487,144.62244 c 0,-0.20765 0.7875,-0.99515 1.75,-1.75 1.58606,-1.24387 1.62143,-1.2085 0.37756,0.37756 C 487.82119,144.91575 487,145.44548 487,144.62244 Z M 259.40499,141.75 257.5,139.5 l 2.25,1.90499 c 1.2375,1.04774 2.25,2.06024 2.25,2.25 0,0.80025 -0.80479,0.20945 -2.59501,-1.90499 z M 496.5,134 c 0.99549,-1.1 2.03498,-2 2.30998,-2 0.275,0 -0.31449,0.9 -1.30998,2 -0.99549,1.1 -2.03498,2 -2.30998,2 -0.275,0 0.31449,-0.9 1.30998,-2 z M 250.92431,132.25 248.5,129.5 l 2.75,2.42431 c 2.57029,2.26589 3.20859,3.07569 2.42431,3.07569 -0.17912,0 -1.41662,-1.2375 -2.75,-2.75 z M 509.5,120 c 2.14824,-2.2 4.1309,-4 4.4059,-4 0.275,0 -1.25766,1.8 -3.4059,4 -2.14824,2.2 -4.1309,4 -4.4059,4 -0.275,0 1.25766,-1.8 3.4059,-4 z M 238.45295,118.75 234.5,114.5 l 4.25,3.95295 c 3.95246,3.6762 4.70953,4.54705 3.95295,4.54705 -0.16338,0 -2.07588,-1.9125 -4.25,-4.25 z M 453.27236,98 c 0,-2.475 0.19502,-3.4875 0.43337,-2.25 0.23836,1.2375 0.23836,3.2625 0,4.5 -0.23835,1.2375 -0.43337,0.225 -0.43337,-2.25 z M 204.94617,85.25 201.5,81.5 l 3.75,3.446167 c 2.0625,1.895392 3.75,3.582892 3.75,3.75 0,0.76362 -0.84622,0.04425 -4.05383,-3.446167 z M 543,86.687091 c 0,-0.1721 1.4625,-1.6346 3.25,-3.25 L 549.5,80.5 546.56291,83.75 C 543.82513,86.779455 543,87.459652 543,86.687091 Z M 461.19495,81.5 c 0.0204,-1.65 0.2445,-2.203936 0.49804,-1.230968 0.25354,0.972967 0.23687,2.322967 -0.0371,3 C 461.38201,83.946064 461.17457,83.15 461.19495,81.5 Z m -11,-4 c 0.0204,-1.65 0.2445,-2.203936 0.49804,-1.230968 0.25354,0.972967 0.23687,2.322967 -0.0371,3 C 450.38201,79.946064 450.17457,79.15 450.19495,77.5 Z M 193.40499,74.75 191.5,72.5 l 2.25,1.904988 C 195.86444,76.195206 196.45524,77 195.65499,77 c -0.18976,0 -1.20226,-1.0125 -2.25,-2.25 z M 556.5,74 c 0.99549,-1.1 2.03498,-2 2.30998,-2 0.275,0 -0.31449,0.9 -1.30998,2 -0.99549,1.1 -2.03498,2 -2.30998,2 -0.275,0 0.31449,-0.9 1.30998,-2 z M 185.87244,68.25 C 184.62857,66.663944 184.66394,66.628574 186.25,67.872445 187.91575,69.178814 188.44548,70 187.62244,70 c -0.20765,0 -0.99515,-0.7875 -1.75,-1.75 z"
       id="path3420"
       inkscape:connector-curvature="0" />
    <path
       style="fill:#dc5d97"
       d="M 213.29096,559.92363 C 177.49316,552.40429 142.89191,533.98208 113.77627,506.94057 98.690079,492.92909 87.445547,474.51261 79.607577,450.97852 74.684048,436.19526 72.722583,423.99026 72.700499,408 c -0.01648,-11.93173 0.289012,-14.43846 2.629729,-21.57841 6.31995,-19.27792 17.845124,-30.69428 47.379512,-46.93219 l 11.61633,-6.38662 3.255,7.95182 c 4.66733,11.40207 14.30338,29.39564 21.9639,41.0136 34.6394,52.53421 85.16863,89.43841 146.95503,107.32911 8.16955,2.36555 11.90173,3.89412 11.69215,4.78869 -0.53433,2.28066 -15.20441,28.89568 -21.57831,39.14819 -11.20761,18.0276 -19.67374,25.31332 -32.0475,27.57923 -10.0649,1.8431 -40.59428,1.25378 -51.27538,-0.98979 z m 266.37401,-0.37029 c -8.09724,-3.32934 -13.31798,-7.17291 -17.71435,-13.0415 -5.1653,-6.895 -16.91911,-26.54972 -24.64264,-41.20738 l -6.42617,-12.19555 4.3091,-1.11568 c 21.32356,-5.52097 38.21145,-11.80147 56.30909,-20.94101 41.18058,-20.79672 74.03512,-50.06536 99.99887,-89.08455 8.19053,-12.309 23.61029,-42.25741 23.85338,-46.32827 l 0.14775,-2.47433 8.74584,4.51656 c 22.98284,11.86887 38.80822,25.26818 45.98646,38.93662 4.45205,8.47736 7.75327,21.41087 7.7548,30.38175 0.002,14.50914 -4.82164,36.74175 -11.71714,54 -9.56305,23.93469 -19.0862,37.20021 -38.10025,53.07275 -25.68496,21.44128 -49.22623,34.03096 -80.54061,43.07246 -14.58283,4.21054 -20.09218,4.84133 -42.1291,4.8235 -18.80121,-0.0152 -20.34975,-0.15999 -25.83503,-2.41537 z M 372.75,499.29427 c 1.2375,-0.23836 3.2625,-0.23836 4.5,0 1.2375,0.23835 0.225,0.43337 -2.25,0.43337 -2.475,0 -3.4875,-0.19502 -2.25,-0.43337 z M 386.30987,471.5 c 0.006,-3.3 0.1923,-4.52944 0.41486,-2.73209 0.22256,1.79735 0.21797,4.49735 -0.0102,6 -0.22818,1.50265 -0.41027,0.0321 -0.40466,-3.26791 z m -23.23092,-19.08333 c 0.048,-1.16495 0.28494,-1.4019 0.60416,-0.60417 0.28887,0.72187 0.25335,1.58438 -0.0789,1.91667 -0.33229,0.33229 -0.56864,-0.25834 -0.52522,-1.3125 z m 1,-18 c 0.048,-1.16495 0.28494,-1.4019 0.60416,-0.60417 0.28887,0.72187 0.25335,1.58438 -0.0789,1.91667 -0.33229,0.33229 -0.56864,-0.25834 -0.52522,-1.3125 z M 385.15789,432 c 0,-1.375 0.22698,-1.9375 0.50439,-1.25 0.27741,0.6875 0.27741,1.8125 0,2.5 -0.27741,0.6875 -0.50439,0.125 -0.50439,-1.25 z m -20.07894,-15.58333 c 0.048,-1.16495 0.28494,-1.4019 0.60416,-0.60417 0.28887,0.72187 0.25335,1.58438 -0.0789,1.91667 -0.33229,0.33229 -0.56864,-0.25834 -0.52522,-1.3125 z M 384.232,402 c 0,-1.925 0.2058,-2.7125 0.45733,-1.75 0.25152,0.9625 0.25152,2.5375 0,3.5 -0.25153,0.9625 -0.45733,0.175 -0.45733,-1.75 z m -0.15305,-11.58333 c 0.048,-1.16495 0.28494,-1.4019 0.60416,-0.60417 0.28887,0.72187 0.25335,1.58438 -0.0789,1.91667 -0.33229,0.33229 -0.56864,-0.25834 -0.52522,-1.3125 z m -24.35176,-21.78426 c 0.29491,-0.47718 -1.28521,-0.6939 -3.51138,-0.4816 -2.25281,0.21484 -3.80018,-0.0143 -3.48964,-0.51675 0.30756,-0.49765 -0.85206,-0.69581 -2.58412,-0.4416 -1.72813,0.25363 -3.14205,0.0366 -3.14205,-0.48228 0,-0.5189 -0.90062,-0.70793 -2.00138,-0.42007 -1.24729,0.32617 -1.75647,0.1271 -1.35138,-0.52836 0.41791,-0.67617 -0.29576,-0.87093 -1.99862,-0.54541 -1.45674,0.27847 -2.64862,0.0706 -2.64862,-0.462 0,-0.53257 -0.675,-0.7093 -1.5,-0.39271 -0.825,0.31658 -1.5,0.0916 -1.5,-0.5 0,-0.59159 -0.69837,-0.80762 -1.55194,-0.48007 -1.00614,0.38609 -1.30283,0.19247 -0.84363,-0.55054 0.48178,-0.77953 0.0182,-0.9656 -1.44944,-0.5818 -1.18676,0.31034 -1.92559,0.18863 -1.64185,-0.27048 0.6553,-1.0603 -3.15733,-2.31668 -4.50419,-1.48427 C 325.45403,360.83743 325,360.61492 325,360 c 0,-0.61492 -0.45,-0.83992 -1,-0.5 -0.55,0.33992 -1,0.11492 -1,-0.5 0,-0.61492 -0.45,-0.83992 -1,-0.5 -0.55,0.33992 -1,0.0933 -1,-0.54797 0,-0.6413 -0.675,-0.90699 -1.5,-0.5904 -0.825,0.31658 -1.5,0.11317 -1.5,-0.45203 0,-0.5652 -0.42742,-0.76347 -0.94983,-0.44061 -0.5224,0.32287 -1.45691,-0.36048 -2.07669,-1.51854 -0.64784,-1.21049 -1.73191,-1.87339 -2.55017,-1.55939 C 311.64049,353.69145 311,353.4748 311,352.9096 c 0,-0.5652 -0.45,-0.74952 -1,-0.4096 -0.55,0.33992 -1,0.14148 -1,-0.44098 0,-0.58246 -0.3375,-0.94652 -0.75,-0.80902 -0.4125,0.1375 -0.92299,-0.2 -1.13442,-0.75 -0.61838,-1.60862 -4.036,-3.66722 -5.04891,-3.0412 -0.51141,0.31606 -1.63562,-0.433 -2.49825,-1.66458 -0.86263,-1.23158 -1.56842,-1.859 -1.56842,-1.39428 0,0.46472 -0.67005,0.28886 -1.48899,-0.3908 -0.81894,-0.67967 -1.31531,-1.52227 -1.10303,-1.87245 0.21227,-0.35018 -0.80518,-1.50579 -2.26101,-2.56802 -2.63604,-1.92336 -2.64078,-1.92304 -1.14697,0.0755 0.825,1.10375 -0.49385,-0.0521 -2.93079,-2.56867 -2.43693,-2.51653 -3.80652,-3.67551 -3.04353,-2.57551 0.76299,1.1 -0.27391,0.45576 -2.30423,-1.43165 -2.03032,-1.8874 -3.50585,-3.61729 -3.27895,-3.84419 0.2269,-0.22689 -1.14496,-1.78004 -3.04856,-3.45143 -1.90361,-1.67139 -3.24013,-3.25987 -2.97005,-3.52995 0.27008,-0.27009 -0.5023,-1.32023 -1.71641,-2.33365 -1.21412,-1.01343 -1.82013,-1.85756 -1.3467,-1.87586 0.47344,-0.0183 -0.20156,-0.96755 -1.5,-2.10946 -1.29843,-1.1419 -1.68578,-1.77785 -0.86078,-1.41322 0.825,0.36463 0.375,-0.26608 -1,-1.40158 -1.375,-1.13549 -2.05,-2.08823 -1.5,-2.11718 0.55,-0.029 0.20304,-0.51662 -0.77103,-1.0837 -0.97407,-0.56708 -1.51001,-1.45339 -1.19099,-1.96959 C 264.85701,307.42234 264.61492,307 264,307 c -0.61492,0 -0.83992,-0.45 -0.5,-1 0.33992,-0.55 0.11492,-1 -0.5,-1 -0.61492,0 -0.83992,-0.45 -0.5,-1 0.33992,-0.55 0.1556,-1 -0.4096,-1 -0.5652,0 -0.76155,-0.6934 -0.43633,-1.54089 0.37629,-0.98062 0.0922,-1.43513 -0.78139,-1.25 -0.75497,0.15999 -1.26018,-0.27161 -1.12268,-0.95911 0.1375,-0.6875 -0.18588,-1.25 -0.71862,-1.25 -0.53273,0 -0.70959,-0.675 -0.39301,-1.5 0.31659,-0.825 0.0509,-1.5 -0.5904,-1.5 -0.6413,0 -0.88789,-0.45 -0.54797,-1 0.33992,-0.55 0.1556,-1 -0.4096,-1 -0.5652,0 -0.74028,-0.74882 -0.38908,-1.66404 0.42645,-1.11132 0.25375,-1.42623 -0.51993,-0.94807 -0.75689,0.46779 -0.95204,0.178 -0.56295,-0.83595 0.32755,-0.85357 0.11152,-1.55194 -0.48007,-1.55194 -0.59237,0 -0.78872,-0.74759 -0.43705,-1.66404 0.42645,-1.11132 0.25375,-1.42623 -0.51993,-0.94807 -0.75689,0.46779 -0.95204,0.178 -0.56295,-0.83595 0.32755,-0.85357 0.11152,-1.55194 -0.48007,-1.55194 -0.59158,0 -0.81658,-0.675 -0.5,-1.5 0.31659,-0.825 0.0916,-1.5 -0.5,-1.5 -0.59158,0 -0.81658,-0.675 -0.5,-1.5 0.31659,-0.825 0.11959,-1.5 -0.43776,-1.5 -0.55735,0 -0.77802,-0.9 -0.49036,-2 0.28766,-1.1 0.0627,-2 -0.5,-2 -0.56266,0 -0.78766,-0.9 -0.5,-2 0.28766,-1.1 0.0829,-2 -0.45495,-2 -0.53787,0 -0.7629,-1.125 -0.50005,-2.5 0.26285,-1.375 0.0658,-2.5 -0.43787,-2.5 -0.50368,0 -0.73191,-1.575 -0.50717,-3.5 0.22473,-1.925 0.0219,-3.5 -0.4508,-3.5 -0.47268,0 -0.85941,-7.425 -0.85941,-16.5 0,-9.075 0.38673,-16.5 0.85941,-16.5 0.47267,0 0.67553,-1.575 0.4508,-3.5 -0.22474,-1.925 0.003,-3.5 0.50717,-3.5 0.50367,0 0.70332,-1.11138 0.44365,-2.46974 -0.28576,-1.49486 -0.0772,-2.22565 0.52842,-1.85137 0.61223,0.37838 0.80628,-0.3978 0.5,-2 -0.30628,-1.6022 -0.11224,-2.37838 0.5,-2 0.61349,0.37916 0.80467,-0.40621 0.49421,-2.03027 -0.27847,-1.45674 -0.0706,-2.64862 0.462,-2.64862 0.53257,0 0.7093,-0.675 0.39271,-1.5 -0.31658,-0.825 -0.0916,-1.5 0.5,-1.5 0.59159,0 0.81659,-0.675 0.5,-1.5 -0.31658,-0.825 -0.0916,-1.5 0.5,-1.5 0.59159,0 0.81659,-0.675 0.5,-1.5 -0.31658,-0.825 -0.11317,-1.5 0.45203,-1.5 0.5652,0 0.74952,-0.45 0.4096,-1 -0.33992,-0.55 -0.0933,-1 0.54797,-1 0.6413,0 0.90699,-0.675 0.5904,-1.5 -0.31658,-0.825 -0.11317,-1.5 0.45203,-1.5 0.5652,0 0.77866,-0.40285 0.47436,-0.89522 -0.3043,-0.49236 0.1702,-1.17283 1.05444,-1.51215 1.01814,-0.39069 1.41708,-1.3459 1.08787,-2.60478 -0.28591,-1.09332 -0.0854,-1.98785 0.44557,-1.98785 0.53097,0 0.68531,-0.45318 0.34299,-1.00706 -0.34231,-0.55389 0.0785,-1.27604 0.93524,-1.60479 0.85671,-0.32874 1.30867,-1.00057 1.00437,-1.49293 C 261.13094,178.40285 261.38508,178 262,178 c 0.61492,0 0.86906,-0.40285 0.56476,-0.89522 -0.3043,-0.49236 0.14025,-1.16134 0.98789,-1.48661 0.84765,-0.32527 1.40756,-1.38493 1.24426,-2.35479 -0.17203,-1.02173 0.24879,-1.65158 1.00056,-1.49756 0.71361,0.14621 1.16361,-0.39122 1,-1.19429 -0.16361,-0.80306 0.60253,-2.19355 1.70253,-3.08998 1.1,-0.89642 1.325,-1.28511 0.5,-0.86375 -1.28805,0.65787 -1.30737,0.5286 -0.13669,-0.91483 0.74982,-0.92452 1.83879,-1.38708 2.41994,-1.02791 0.64156,0.3965 0.82416,0.0472 0.46483,-0.88916 -0.6316,-1.64595 0.92846,-3.7859 2.76,-3.7859 2.52921,0 35.36585,42.30688 51.22615,66 7.26571,10.85397 21.58457,34.71096 23.70773,39.5 0.56052,1.2643 5.45032,-4.21981 7.9721,-8.94103 1.8161,-3.40005 1.83356,-3.91503 0.34114,-10.06172 -1.88073,-7.74601 -1.52693,-9.63481 2.88936,-15.42531 3.86727,-5.07065 3.87362,-5.01305 -1.80415,-16.35526 -5.27022,-10.52807 -10.43622,-18.48877 -28.15723,-43.38979 -16.87471,-23.71182 -26.29099,-38.62429 -24.71955,-39.1481 0.57686,-0.19229 0.7515,-0.8307 0.38809,-1.41871 -0.3634,-0.588 -0.22695,-0.801 0.30324,-0.47333 0.53019,0.32768 3.29087,4.40359 6.13484,9.05759 2.84398,4.65401 10.00931,15.14294 15.92295,23.30874 16.30735,22.51786 28.81378,41.62398 33.8665,51.738 2.50284,5.0099 4.90643,9.47146 5.34131,9.91455 0.43489,0.4431 1.34679,-0.53686 2.02645,-2.1777 0.67966,-1.64084 2.08618,-3.75298 3.12561,-4.69365 1.62734,-1.47273 2.12235,-1.5175 3.56353,-0.32229 0.92051,0.7634 2.28499,2.85051 3.03217,4.63801 0.74719,1.7875 1.57338,3.25 1.83598,3.25 0.26261,0 2.79161,-4.6125 5.62001,-10.25 5.97048,-11.90024 15.76424,-27.19079 29.06454,-45.37715 11.35226,-15.52269 18.95482,-26.70819 23.9246,-35.19984 3.17519,-5.42532 3.79823,-6.02664 4.37182,-4.21942 1.02312,3.22357 -4.63106,12.30525 -28.04554,45.04641 -7.27654,10.175 -15.60543,22.325 -18.50864,27 C 392.58563,210.60772 386,223.88399 386,226.05244 c 0,0.65094 1.3435,2.71369 2.98555,4.58388 3.95623,4.5059 4.52435,7.30278 3.10109,15.26683 -1.31299,7.34705 -1.11963,8.23299 3.46388,15.87075 3.69581,6.15854 2.86709,6.75921 11.41524,-8.2739 8.44189,-14.84622 21.19817,-34.1719 33.33349,-50.5 15.21536,-20.4723 37.51196,-47.94364 36.53961,-45.01995 -0.27072,0.81403 0.44228,2.31081 1.58446,3.32619 1.14217,1.01537 1.51933,1.56348 0.83813,1.21801 -0.8245,-0.41814 -1.03392,-0.0949 -0.62646,0.96694 0.33665,0.87729 0.85259,1.35456 1.14654,1.06061 0.98498,-0.98498 3.10651,1.57639 2.53635,3.06221 -0.30978,0.80728 -0.17054,1.33688 0.30944,1.17688 0.47997,-0.15999 0.95521,0.0876 1.05609,0.55018 0.10088,0.46258 1.00088,1.50845 2,2.32415 1.09023,0.89009 1.21682,1.22387 0.31659,0.83478 -1.00089,-0.4326 -0.92288,-0.17482 0.23446,0.77472 0.95395,0.78267 1.44145,1.71604 1.08333,2.07416 -0.35812,0.35811 -0.0996,0.65112 0.57456,0.65112 0.67413,0 0.94977,0.44644 0.61254,0.99208 -0.69772,1.12895 0.9324,4.50792 2.17477,4.50792 0.45119,0 0.70784,0.3375 0.57034,0.75 -0.1375,0.4125 0.18588,0.75 0.71862,0.75 0.53273,0 0.70959,0.675 0.39301,1.5 -0.31659,0.825 -0.0509,1.5 0.5904,1.5 0.6413,0 0.88789,0.45 0.54797,1 -0.33992,0.55 -0.11492,1 0.5,1 0.61492,0 0.83992,0.45 0.5,1 -0.33992,0.55 -0.1556,1 0.4096,1 0.5652,0 0.76861,0.675 0.45203,1.5 -0.31659,0.825 -0.0509,1.5 0.5904,1.5 0.6413,0 0.88789,0.45 0.54797,1 -0.33992,0.55 -0.1556,1 0.4096,1 0.5652,0 0.76861,0.675 0.45203,1.5 -0.31659,0.825 -0.11959,1.5 0.43776,1.5 0.55735,0 0.75961,0.97037 0.44947,2.15637 -0.38351,1.46652 -0.19726,1.92978 0.58216,1.44806 0.74301,-0.4592 0.93663,-0.16251 0.55054,0.84363 -0.32755,0.85357 -0.13952,1.55194 0.41783,1.55194 0.55735,0 0.77802,0.9 0.49036,2 -0.28766,1.1 -0.0627,2 0.5,2 0.56266,0 0.78766,0.9 0.5,2 -0.28766,1.1 -0.0985,2 0.42043,2 0.51889,0 0.73591,1.41392 0.48228,3.14205 -0.26202,1.78525 -0.0616,2.89509 0.4642,2.57014 0.52514,-0.32455 0.75218,0.91152 0.52494,2.85796 -0.22022,1.88642 -0.0137,3.42985 0.45899,3.42985 0.47268,0 0.85941,7.425 0.85941,16.5 0,9.075 -0.38673,16.5 -0.85941,16.5 -0.47267,0 -0.67921,1.54343 -0.45899,3.42985 0.22724,1.94644 2e-4,3.18251 -0.52494,2.85796 -0.52436,-0.32408 -0.72888,0.76679 -0.47195,2.51733 0.26922,1.83434 0.0618,2.84721 -0.51064,2.49342 -0.56761,-0.3508 -0.75822,0.48092 -0.46352,2.02255 0.30628,1.6022 0.11224,2.37838 -0.5,2 -0.61349,-0.37916 -0.80467,0.40621 -0.49421,2.03027 0.27847,1.45674 0.0706,2.64862 -0.462,2.64862 -0.53257,0 -0.7093,0.675 -0.39271,1.5 0.31658,0.825 0.0916,1.5 -0.5,1.5 -0.59159,0 -0.81659,0.675 -0.5,1.5 0.31658,0.825 0.0916,1.5 -0.5,1.5 -0.59159,0 -0.80762,0.69837 -0.48007,1.55194 0.38909,1.01395 0.19394,1.30374 -0.56295,0.83595 -0.77368,-0.47816 -0.94638,-0.16325 -0.51993,0.94807 0.35167,0.91645 0.15532,1.66404 -0.43705,1.66404 -0.59159,0 -0.80762,0.69837 -0.48007,1.55194 0.32754,0.85356 0.19784,1.30615 -0.28823,1.00574 -1.06621,-0.65895 -2.33146,2.248 -1.53756,3.53256 0.30925,0.50037 0.0376,0.90976 -0.60374,0.90976 -0.6413,0 -0.90699,0.675 -0.5904,1.5 0.31658,0.825 0.13972,1.5 -0.39301,1.5 -0.53274,0 -0.85612,0.5625 -0.71862,1.25 0.1375,0.6875 -0.36771,1.1191 -1.12268,0.95911 -0.87357,-0.18513 -1.15768,0.26938 -0.78139,1.25 0.32522,0.84749 0.12887,1.54089 -0.43633,1.54089 -0.5652,0 -0.74952,0.45 -0.4096,1 0.33992,0.55 0.0665,1 -0.60765,1 -0.67413,0 -0.93268,0.29301 -0.57456,0.65112 0.35812,0.35812 -0.12938,1.29149 -1.08333,2.07416 -1.15734,0.94954 -1.23535,1.20732 -0.23446,0.77472 1.00089,-0.4326 0.92288,-0.17482 -0.23446,0.77472 -0.95395,0.78267 -1.45204,1.70545 -1.10687,2.05062 0.34517,0.34517 -0.10924,0.91033 -1.0098,1.25591 -0.90056,0.34557 -1.40744,1.00038 -1.1264,1.45511 0.28105,0.45474 -0.49667,1.53259 -1.72825,2.39522 -1.23158,0.86263 -1.8016,1.5846 -1.26673,1.60438 0.53488,0.0198 -0.37749,1.19417 -2.02749,2.60975 -1.65,1.41558 -2.325,2.21302 -1.5,1.77208 1.28879,-0.68882 1.30803,-0.56501 0.13669,0.87924 -0.74982,0.92452 -1.87482,1.38876 -2.5,1.03163 -0.62518,-0.35712 -0.80309,-0.28107 -0.39537,0.16901 0.89165,0.98424 -1.13607,3.68541 -2.24984,2.99706 -0.43005,-0.26578 -1.04891,0.21254 -1.37524,1.06295 -0.40034,1.04328 -0.19048,1.31076 0.64521,0.82236 0.6812,-0.3981 0.39091,0.24291 -0.6451,1.42448 -1.036,1.18158 -2.386,1.86178 -3,1.51157 -0.61399,-0.35021 -0.78275,-0.2685 -0.37503,0.18158 1.03553,1.14307 -1.11324,3.48871 -2.65422,2.89738 -0.69667,-0.26734 -1.90127,0.32191 -2.67689,1.30944 -1.31266,1.67131 -1.27186,1.69439 0.58979,0.3337 1.1,-0.80399 0.68281,-0.0212 -0.9271,1.73957 -1.6099,1.76076 -3.12827,3.00021 -3.37414,2.75433 -0.24587,-0.24587 -1.27621,0.54632 -2.28963,1.76043 -1.01343,1.21412 -1.85756,1.76985 -1.87586,1.23497 -0.0183,-0.53487 -0.73906,0.0351 -1.60169,1.26673 -0.86263,1.23158 -1.94048,2.0093 -2.39522,1.72825 -0.45473,-0.28104 -1.08191,0.15385 -1.39372,0.96641 -0.31181,0.81257 -1.21228,1.22976 -2.00103,0.92709 -0.79333,-0.30443 -2.07905,0.37048 -2.87755,1.51049 -0.7939,1.13345 -1.74059,1.76368 -2.10375,1.40051 C 440.29714,351.9638 440,352.21822 440,352.89235 c 0,0.67413 -0.45,0.94757 -1,0.60765 -0.55,-0.33992 -1,-0.0665 -1,0.60765 0,0.67413 -0.29301,0.93268 -0.65112,0.57456 -0.35812,-0.35812 -1.29149,0.12938 -2.07416,1.08333 -0.94954,1.15734 -1.20732,1.23535 -0.77472,0.23446 0.5195,-1.20196 0.38521,-1.18452 -0.67584,0.0878 -0.72829,0.87327 -1.88666,1.39827 -2.57416,1.16667 -0.6875,-0.23161 -1.25,0.093 -1.25,0.72124 0,0.6283 -0.45,0.86424 -1,0.52432 -0.55,-0.33992 -1,-0.11492 -1,0.5 0,0.61492 -0.45,0.83992 -1,0.5 -0.55,-0.33992 -1,-0.1556 -1,0.4096 0,0.5652 -0.675,0.76861 -1.5,0.45203 -0.825,-0.31659 -1.5,-0.0509 -1.5,0.5904 0,0.6413 -0.45,0.88789 -1,0.54797 -0.55,-0.33992 -1,-0.18361 -1,0.34736 0,0.53097 -0.97037,0.71164 -2.15637,0.4015 -1.46652,-0.38351 -1.92978,-0.19726 -1.44806,0.58216 0.4592,0.74301 0.16251,0.93663 -0.84363,0.55054 C 415.69837,363.05401 415,363.27004 415,363.86163 c 0,0.59158 -0.675,0.81658 -1.5,0.5 -0.825,-0.31659 -1.5,-0.13986 -1.5,0.39271 0,0.53257 -1.19188,0.74047 -2.64862,0.462 -1.70286,-0.32552 -2.41653,-0.13076 -1.99862,0.54541 0.40509,0.65546 -0.10409,0.85453 -1.35138,0.52836 C 404.90062,366.00225 404,366.20682 404,366.7447 c 0,0.53787 -1.125,0.7629 -2.5,0.50005 -1.375,-0.26285 -2.5,-0.0658 -2.5,0.43787 0,0.50368 -1.575,0.73191 -3.5,0.50717 -1.925,-0.22473 -3.5,-0.0219 -3.5,0.4508 0,0.47268 -7.38203,0.85941 -16.40451,0.85941 -9.02248,0 -16.16322,-0.39042 -15.8683,-0.86759 z M 209.75,294.33772 c 0.6875,-0.27741 1.8125,-0.27741 2.5,0 0.6875,0.27741 0.125,0.50439 -1.25,0.50439 -1.375,0 -1.9375,-0.22698 -1.25,-0.50439 z m 328.51903,-0.0307 c 0.97297,-0.25354 2.32297,-0.23687 3,0.0371 0.67703,0.27393 -0.11903,0.48137 -1.76903,0.46099 -1.65,-0.0204 -2.20394,-0.2445 -1.23097,-0.49804 z m -366,-1 c 0.97297,-0.25354 2.32297,-0.23687 3,0.0371 0.67703,0.27393 -0.11903,0.48137 -1.76903,0.46099 -1.65,-0.0204 -2.20394,-0.2445 -1.23097,-0.49804 z m 404.48097,0.0307 c 0.6875,-0.27741 1.8125,-0.27741 2.5,0 0.6875,0.27741 0.125,0.50439 -1.25,0.50439 -1.375,0 -1.9375,-0.22698 -1.25,-0.50439 z m 23.0625,-1.02083 c 0.72187,-0.28887 1.58438,-0.25335 1.91667,0.0789 0.33229,0.33229 -0.25834,0.56864 -1.3125,0.52522 -1.16495,-0.048 -1.4019,-0.28494 -0.60417,-0.60416 z M 110.77124,288.47303 C 89.705075,284.2808 79.383916,278.64117 70.106793,266.25338 62.555843,256.17056 60.518865,248.71849 56.510532,216.51291 51.793801,178.61561 47.589027,155.43913 43.537432,145.00592 41.720695,140.32766 36.528984,127.725 32.000296,117 20.245013,89.160722 6.1641908,54.679571 3.2107126,46.5 -3.5214489,27.855476 0.77472845,9.3635275 13.375791,2.7466628 23.844366,-2.750425 60.236226,0.55057309 76.5,8.4724732 79.25,9.811967 88.025,13.441464 96,16.538022 c 29.22367,11.34706 57.73938,26.609566 77.58534,41.526123 5.14593,3.867764 9.61098,7.444497 9.92235,7.948296 0.31136,0.503799 -2.19929,4.194599 -5.57923,8.201778 C 136.92167,122.83095 114.88956,186.57329 117.34212,249.5 c 0.53925,13.83583 2.37993,30.75548 4.16121,38.25 0.63608,2.67625 -0.52421,2.75442 -10.73209,0.72303 z m 518.7087,-0.65639 c 1.79551,-7.54223 3.63661,-24.4273 4.17794,-38.31664 2.26447,-58.10078 -16.27372,-116.9226 -51.70628,-164.064395 -3.74887,-4.987739 -8.85598,-11.337427 -11.34914,-14.110418 l -4.53301,-5.041802 2.21527,-2.008967 C 572.51453,60.438532 585.9872,50.93714 594.86995,45.525587 618.32962,31.233491 642.61249,20.042943 670,10.902564 c 9.625,-3.2122728 20.2,-6.843688 23.5,-8.0698119 5.25318,-1.95183291 7.99152,-2.2357534 22,-2.28103408 17.8397,-0.0576646 20.67169,0.68664278 27.11016,7.12511078 4.14472,4.1447142 7.3999,14.1699782 7.36368,22.6785062 -0.0329,7.732796 -7.09435,28.738916 -18.87362,56.144665 -8.43038,19.61419 -22.25345,55.07326 -25.92383,66.5 -5.33399,16.60598 -7.71579,29.28918 -12.11258,64.5 -1.64828,13.2 -3.69667,26.7 -4.55197,30 -3.76799,14.53812 -13.21758,27.00854 -25.25811,33.33258 -6.08223,3.19457 -19.87795,7.21567 -29.53951,8.61002 -4.63461,0.66886 -4.76835,0.6175 -4.23428,-1.62596 z M 249.87244,131.25 c -1.24387,-1.58606 -1.2085,-1.62143 0.37756,-0.37756 0.9625,0.75485 1.75,1.54235 1.75,1.75 0,0.82304 -0.82119,0.29331 -2.12756,-1.37244 z M 511,118.5 c 1.29175,-1.375 2.57363,-2.5 2.84863,-2.5 0.275,0 -0.55688,1.125 -1.84863,2.5 -1.29175,1.375 -2.57363,2.5 -2.84863,2.5 -0.275,0 0.55688,-1.125 1.84863,-2.5 z M 236.40499,116.75 234.5,114.5 l 2.25,1.90499 c 2.11444,1.79022 2.70524,2.59501 1.90499,2.59501 -0.18976,0 -1.20226,-1.0125 -2.25,-2.25 z m -30,-30 -1.90499,-2.25 2.25,1.904988 C 208.86444,88.195206 209.45524,89 208.65499,89 c -0.18976,0 -1.20226,-1.0125 -2.25,-2.25 z M 543,86.622445 c 0,-0.207656 0.7875,-0.995156 1.75,-1.75 1.58606,-1.243871 1.62143,-1.208501 0.37756,0.377555 C 543.82119,86.915748 543,87.445479 543,86.622445 Z M 450.15789,77 c 0,-1.375 0.22698,-1.9375 0.50439,-1.25 0.27741,0.6875 0.27741,1.8125 0,2.5 -0.27741,0.6875 -0.50439,0.125 -0.50439,-1.25 z"
       id="path3418"
       inkscape:connector-curvature="0" />
    <path
       style="fill:#20b0fd"
       d="m 216,560.11832 c -41.65922,-9.08392 -74.15411,-26.52586 -104.25,-55.9572 -6.4625,-6.3198 -11.75,-11.8212 -11.75,-12.22534 0,-0.40414 -1.622912,-3.14252 -3.606471,-6.08529 -5.321498,-7.89487 -12.951778,-24.24689 -16.803835,-36.01135 -5.09403,-15.55752 -6.902095,-28.2215 -6.368372,-44.60509 0.387731,-11.90212 0.809312,-14.66775 3.160611,-20.73405 7.298,-18.82868 18.959059,-29.87996 48.252767,-45.72955 l 10.13471,-5.48346 1.15306,3.84858 c 1.97854,6.60378 16.27902,33.8788 23.41419,44.65739 25.75748,38.91006 60.10532,69.38689 101.16334,89.76223 16.94758,8.41036 28.38017,12.83126 45.60007,17.63322 6.53148,1.82137 11.88094,3.72438 11.88768,4.22891 0.0398,2.97895 -22.6932,42.47757 -30.16754,52.41617 -4.2049,5.59122 -13.54475,12.35404 -19.71391,14.27449 -1.98347,0.61745 -12.6063,1.28939 -23.6063,1.49321 -16.72677,0.30993 -21.39112,0.0672 -28.5,-1.48287 z m 264.89213,-0.41085 c -8.22739,-3.47511 -12.29023,-6.23926 -17.0986,-11.63301 -4.76291,-5.34275 -16.18462,-24.07479 -26.10545,-42.81396 l -6.4798,-12.23949 4.14586,-1.07174 c 21.08485,-5.45056 38.09851,-11.78291 56.14586,-20.89705 41.18058,-20.79672 74.03512,-50.06536 99.99887,-89.08455 8.11085,-12.18926 23.6061,-42.23668 23.85338,-46.25498 l 0.14775,-2.40104 7.5,4.00688 c 36.68908,19.60116 49.88154,34.6994 54.10514,61.92113 2.49101,16.05499 -3.26933,44.08457 -14.14829,68.84496 -6.86346,15.62117 -14.10874,25.96522 -26.59703,37.97243 -24.69892,23.74747 -54.47488,41.05241 -86.09598,50.03653 -16.28986,4.62823 -19.53079,5.05676 -41.76384,5.5221 -21.41821,0.44829 -22.1483,0.39783 -27.60787,-1.90821 z M 373.25,499.31067 c 0.9625,-0.25152 2.5375,-0.25152 3.5,0 0.9625,0.25153 0.175,0.45733 -1.75,0.45733 -1.925,0 -2.7125,-0.2058 -1.75,-0.45733 z M 386.30987,471.5 c 0.006,-3.3 0.1923,-4.52944 0.41486,-2.73209 0.22256,1.79735 0.21797,4.49735 -0.0102,6 -0.22818,1.50265 -0.41027,0.0321 -0.40466,-3.26791 z m -23.23092,-19.08333 c 0.048,-1.16495 0.28494,-1.4019 0.60416,-0.60417 0.28887,0.72187 0.25335,1.58438 -0.0789,1.91667 -0.33229,0.33229 -0.56864,-0.25834 -0.52522,-1.3125 z m 1,-18 c 0.048,-1.16495 0.28494,-1.4019 0.60416,-0.60417 0.28887,0.72187 0.25335,1.58438 -0.0789,1.91667 -0.33229,0.33229 -0.56864,-0.25834 -0.52522,-1.3125 z M 385.15789,432 c 0,-1.375 0.22698,-1.9375 0.50439,-1.25 0.27741,0.6875 0.27741,1.8125 0,2.5 -0.27741,0.6875 -0.50439,0.125 -0.50439,-1.25 z m -20.07894,-15.58333 c 0.048,-1.16495 0.28494,-1.4019 0.60416,-0.60417 0.28887,0.72187 0.25335,1.58438 -0.0789,1.91667 -0.33229,0.33229 -0.56864,-0.25834 -0.52522,-1.3125 z M 384.232,402 c 0,-1.925 0.2058,-2.7125 0.45733,-1.75 0.25152,0.9625 0.25152,2.5375 0,3.5 -0.25153,0.9625 -0.45733,0.175 -0.45733,-1.75 z m -0.15305,-11.58333 c 0.048,-1.16495 0.28494,-1.4019 0.60416,-0.60417 0.28887,0.72187 0.25335,1.58438 -0.0789,1.91667 -0.33229,0.33229 -0.56864,-0.25834 -0.52522,-1.3125 z m -24.35176,-21.78426 c 0.29491,-0.47718 -1.28521,-0.6939 -3.51138,-0.4816 -2.25281,0.21484 -3.80018,-0.0143 -3.48964,-0.51675 0.30756,-0.49765 -0.85206,-0.69581 -2.58412,-0.4416 -1.72813,0.25363 -3.14205,0.0366 -3.14205,-0.48228 0,-0.5189 -0.90062,-0.70793 -2.00138,-0.42007 -1.24729,0.32617 -1.75647,0.1271 -1.35138,-0.52836 0.41791,-0.67617 -0.29576,-0.87093 -1.99862,-0.54541 -1.45674,0.27847 -2.64862,0.0706 -2.64862,-0.462 0,-0.53257 -0.675,-0.7093 -1.5,-0.39271 -0.825,0.31658 -1.5,0.0916 -1.5,-0.5 0,-0.59159 -0.69837,-0.80762 -1.55194,-0.48007 -1.00614,0.38609 -1.30283,0.19247 -0.84363,-0.55054 0.48178,-0.77953 0.0182,-0.9656 -1.44944,-0.5818 -1.18676,0.31034 -1.92559,0.18863 -1.64185,-0.27048 0.6553,-1.0603 -3.15733,-2.31668 -4.50419,-1.48427 C 325.45403,360.83743 325,360.61492 325,360 c 0,-0.61492 -0.45,-0.83992 -1,-0.5 -0.55,0.33992 -1,0.11492 -1,-0.5 0,-0.61492 -0.45,-0.83992 -1,-0.5 -0.55,0.33992 -1,0.0933 -1,-0.54797 0,-0.6413 -0.675,-0.90699 -1.5,-0.5904 -0.825,0.31658 -1.5,0.11317 -1.5,-0.45203 0,-0.5652 -0.42742,-0.76347 -0.94983,-0.44061 -0.5224,0.32287 -1.45691,-0.36048 -2.07669,-1.51854 -0.64784,-1.21049 -1.73191,-1.87339 -2.55017,-1.55939 C 311.64049,353.69145 311,353.4748 311,352.9096 c 0,-0.5652 -0.45,-0.74952 -1,-0.4096 -0.55,0.33992 -1,0.14148 -1,-0.44098 0,-0.58246 -0.3375,-0.94652 -0.75,-0.80902 -0.4125,0.1375 -0.92299,-0.2 -1.13442,-0.75 -0.61838,-1.60862 -4.036,-3.66722 -5.04891,-3.0412 -0.51141,0.31606 -1.63562,-0.433 -2.49825,-1.66458 -0.86263,-1.23158 -1.56842,-1.859 -1.56842,-1.39428 0,0.46472 -0.67005,0.28886 -1.48899,-0.3908 -0.81894,-0.67967 -1.31531,-1.52227 -1.10303,-1.87245 0.21227,-0.35018 -0.80518,-1.50579 -2.26101,-2.56802 -2.63604,-1.92336 -2.64078,-1.92304 -1.14697,0.0755 0.825,1.10375 -0.49385,-0.0521 -2.93079,-2.56867 -2.43693,-2.51653 -3.80652,-3.67551 -3.04353,-2.57551 0.76299,1.1 -0.27391,0.45576 -2.30423,-1.43165 -2.03032,-1.8874 -3.50585,-3.61729 -3.27895,-3.84419 0.2269,-0.22689 -1.14496,-1.78004 -3.04856,-3.45143 -1.90361,-1.67139 -3.24013,-3.25987 -2.97005,-3.52995 0.27008,-0.27009 -0.5023,-1.32023 -1.71641,-2.33365 -1.21412,-1.01343 -1.82013,-1.85756 -1.3467,-1.87586 0.47344,-0.0183 -0.20156,-0.96755 -1.5,-2.10946 -1.29843,-1.1419 -1.68578,-1.77785 -0.86078,-1.41322 0.825,0.36463 0.375,-0.26608 -1,-1.40158 -1.375,-1.13549 -2.05,-2.08823 -1.5,-2.11718 0.55,-0.029 0.20304,-0.51662 -0.77103,-1.0837 -0.97407,-0.56708 -1.51001,-1.45339 -1.19099,-1.96959 C 264.85701,307.42234 264.61492,307 264,307 c -0.61492,0 -0.83992,-0.45 -0.5,-1 0.33992,-0.55 0.11492,-1 -0.5,-1 -0.61492,0 -0.83992,-0.45 -0.5,-1 0.33992,-0.55 0.1556,-1 -0.4096,-1 -0.5652,0 -0.76155,-0.6934 -0.43633,-1.54089 0.37629,-0.98062 0.0922,-1.43513 -0.78139,-1.25 -0.75497,0.15999 -1.26018,-0.27161 -1.12268,-0.95911 0.1375,-0.6875 -0.18588,-1.25 -0.71862,-1.25 -0.53273,0 -0.70959,-0.675 -0.39301,-1.5 0.31659,-0.825 0.0509,-1.5 -0.5904,-1.5 -0.6413,0 -0.88789,-0.45 -0.54797,-1 0.33992,-0.55 0.1556,-1 -0.4096,-1 -0.5652,0 -0.74028,-0.74882 -0.38908,-1.66404 0.42645,-1.11132 0.25375,-1.42623 -0.51993,-0.94807 -0.75689,0.46779 -0.95204,0.178 -0.56295,-0.83595 0.32755,-0.85357 0.11152,-1.55194 -0.48007,-1.55194 -0.59237,0 -0.78872,-0.74759 -0.43705,-1.66404 0.42645,-1.11132 0.25375,-1.42623 -0.51993,-0.94807 -0.75689,0.46779 -0.95204,0.178 -0.56295,-0.83595 0.32755,-0.85357 0.11152,-1.55194 -0.48007,-1.55194 -0.59158,0 -0.81658,-0.675 -0.5,-1.5 0.31659,-0.825 0.0916,-1.5 -0.5,-1.5 -0.59158,0 -0.81658,-0.675 -0.5,-1.5 0.31659,-0.825 0.11959,-1.5 -0.43776,-1.5 -0.55735,0 -0.77802,-0.9 -0.49036,-2 0.28766,-1.1 0.0627,-2 -0.5,-2 -0.56266,0 -0.78766,-0.9 -0.5,-2 0.28766,-1.1 0.0829,-2 -0.45495,-2 -0.53787,0 -0.7629,-1.125 -0.50005,-2.5 0.26285,-1.375 0.0658,-2.5 -0.43787,-2.5 -0.50368,0 -0.73191,-1.575 -0.50717,-3.5 0.22473,-1.925 0.0219,-3.5 -0.4508,-3.5 -0.47268,0 -0.85941,-7.425 -0.85941,-16.5 0,-9.075 0.38673,-16.5 0.85941,-16.5 0.47267,0 0.67553,-1.575 0.4508,-3.5 -0.22474,-1.925 0.003,-3.5 0.50717,-3.5 0.50367,0 0.70332,-1.11138 0.44365,-2.46974 -0.28576,-1.49486 -0.0772,-2.22565 0.52842,-1.85137 0.61223,0.37838 0.80628,-0.3978 0.5,-2 -0.30628,-1.6022 -0.11224,-2.37838 0.5,-2 0.61349,0.37916 0.80467,-0.40621 0.49421,-2.03027 -0.27847,-1.45674 -0.0706,-2.64862 0.462,-2.64862 0.53257,0 0.7093,-0.675 0.39271,-1.5 -0.31658,-0.825 -0.0916,-1.5 0.5,-1.5 0.59159,0 0.81659,-0.675 0.5,-1.5 -0.31658,-0.825 -0.0916,-1.5 0.5,-1.5 0.59159,0 0.81659,-0.675 0.5,-1.5 -0.31658,-0.825 -0.11317,-1.5 0.45203,-1.5 0.5652,0 0.74952,-0.45 0.4096,-1 -0.33992,-0.55 -0.0933,-1 0.54797,-1 0.6413,0 0.90699,-0.675 0.5904,-1.5 -0.31658,-0.825 -0.11317,-1.5 0.45203,-1.5 0.5652,0 0.77866,-0.40285 0.47436,-0.89522 -0.3043,-0.49236 0.1702,-1.17283 1.05444,-1.51215 1.01814,-0.39069 1.41708,-1.3459 1.08787,-2.60478 -0.28591,-1.09332 -0.0854,-1.98785 0.44557,-1.98785 0.53097,0 0.68531,-0.45318 0.34299,-1.00706 -0.34231,-0.55389 0.0785,-1.27604 0.93524,-1.60479 0.85671,-0.32874 1.30867,-1.00057 1.00437,-1.49293 C 261.13094,178.40285 261.38508,178 262,178 c 0.61492,0 0.86906,-0.40285 0.56476,-0.89522 -0.3043,-0.49236 0.14025,-1.16134 0.98789,-1.48661 0.84765,-0.32527 1.40756,-1.38493 1.24426,-2.35479 -0.17203,-1.02173 0.24879,-1.65158 1.00056,-1.49756 0.71361,0.14621 1.16361,-0.39122 1,-1.19429 -0.16361,-0.80306 0.60253,-2.19355 1.70253,-3.08998 1.1,-0.89642 1.325,-1.28511 0.5,-0.86375 -1.28805,0.65787 -1.30737,0.5286 -0.13669,-0.91483 0.74982,-0.92452 1.83879,-1.38708 2.41994,-1.02791 0.64156,0.3965 0.82416,0.0472 0.46483,-0.88916 -0.6316,-1.64595 0.92846,-3.7859 2.76,-3.7859 2.52921,0 35.36585,42.30688 51.22615,66 7.26571,10.85397 21.58457,34.71096 23.70773,39.5 0.56052,1.2643 5.45032,-4.21981 7.9721,-8.94103 1.8161,-3.40005 1.83356,-3.91503 0.34114,-10.06172 -1.88073,-7.74601 -1.52693,-9.63481 2.88936,-15.42531 3.86727,-5.07065 3.87362,-5.01305 -1.80415,-16.35526 -5.27022,-10.52807 -10.43622,-18.48877 -28.15723,-43.38979 -16.87471,-23.71182 -26.29099,-38.62429 -24.71955,-39.1481 0.57686,-0.19229 0.7515,-0.8307 0.38809,-1.41871 -0.3634,-0.588 -0.22695,-0.801 0.30324,-0.47333 0.53019,0.32768 3.29087,4.40359 6.13484,9.05759 2.84398,4.65401 10.00931,15.14294 15.92295,23.30874 16.30735,22.51786 28.81378,41.62398 33.8665,51.738 2.50284,5.0099 4.90643,9.47146 5.34131,9.91455 0.43489,0.4431 1.34679,-0.53686 2.02645,-2.1777 0.67966,-1.64084 2.08618,-3.75298 3.12561,-4.69365 1.62734,-1.47273 2.12235,-1.5175 3.56353,-0.32229 0.92051,0.7634 2.28499,2.85051 3.03217,4.63801 0.74719,1.7875 1.57338,3.25 1.83598,3.25 0.26261,0 2.79161,-4.6125 5.62001,-10.25 5.97048,-11.90024 15.76424,-27.19079 29.06454,-45.37715 11.35226,-15.52269 18.95482,-26.70819 23.9246,-35.19984 3.17519,-5.42532 3.79823,-6.02664 4.37182,-4.21942 1.02312,3.22357 -4.63106,12.30525 -28.04554,45.04641 -7.27654,10.175 -15.60543,22.325 -18.50864,27 C 392.58563,210.60772 386,223.88399 386,226.05244 c 0,0.65094 1.3435,2.71369 2.98555,4.58388 3.95623,4.5059 4.52435,7.30278 3.10109,15.26683 -1.31299,7.34705 -1.11963,8.23299 3.46388,15.87075 3.69581,6.15854 2.86709,6.75921 11.41524,-8.2739 8.44189,-14.84622 21.19817,-34.1719 33.33349,-50.5 15.21536,-20.4723 37.51196,-47.94364 36.53961,-45.01995 -0.27072,0.81403 0.44228,2.31081 1.58446,3.32619 1.14217,1.01537 1.51933,1.56348 0.83813,1.21801 -0.8245,-0.41814 -1.03392,-0.0949 -0.62646,0.96694 0.33665,0.87729 0.85259,1.35456 1.14654,1.06061 0.98498,-0.98498 3.10651,1.57639 2.53635,3.06221 -0.30978,0.80728 -0.17054,1.33688 0.30944,1.17688 0.47997,-0.15999 0.95521,0.0876 1.05609,0.55018 0.10088,0.46258 1.00088,1.50845 2,2.32415 1.09023,0.89009 1.21682,1.22387 0.31659,0.83478 -1.00089,-0.4326 -0.92288,-0.17482 0.23446,0.77472 0.95395,0.78267 1.44145,1.71604 1.08333,2.07416 -0.35812,0.35811 -0.0996,0.65112 0.57456,0.65112 0.67413,0 0.94977,0.44644 0.61254,0.99208 -0.69772,1.12895 0.9324,4.50792 2.17477,4.50792 0.45119,0 0.70784,0.3375 0.57034,0.75 -0.1375,0.4125 0.18588,0.75 0.71862,0.75 0.53273,0 0.70959,0.675 0.39301,1.5 -0.31659,0.825 -0.0509,1.5 0.5904,1.5 0.6413,0 0.88789,0.45 0.54797,1 -0.33992,0.55 -0.11492,1 0.5,1 0.61492,0 0.83992,0.45 0.5,1 -0.33992,0.55 -0.1556,1 0.4096,1 0.5652,0 0.76861,0.675 0.45203,1.5 -0.31659,0.825 -0.0509,1.5 0.5904,1.5 0.6413,0 0.88789,0.45 0.54797,1 -0.33992,0.55 -0.1556,1 0.4096,1 0.5652,0 0.76861,0.675 0.45203,1.5 -0.31659,0.825 -0.11959,1.5 0.43776,1.5 0.55735,0 0.75961,0.97037 0.44947,2.15637 -0.38351,1.46652 -0.19726,1.92978 0.58216,1.44806 0.74301,-0.4592 0.93663,-0.16251 0.55054,0.84363 -0.32755,0.85357 -0.13952,1.55194 0.41783,1.55194 0.55735,0 0.77802,0.9 0.49036,2 -0.28766,1.1 -0.0627,2 0.5,2 0.56266,0 0.78766,0.9 0.5,2 -0.28766,1.1 -0.0985,2 0.42043,2 0.51889,0 0.73591,1.41392 0.48228,3.14205 -0.26202,1.78525 -0.0616,2.89509 0.4642,2.57014 0.52514,-0.32455 0.75218,0.91152 0.52494,2.85796 -0.22022,1.88642 -0.0137,3.42985 0.45899,3.42985 0.47268,0 0.85941,7.425 0.85941,16.5 0,9.075 -0.38673,16.5 -0.85941,16.5 -0.47267,0 -0.67921,1.54343 -0.45899,3.42985 0.22724,1.94644 2e-4,3.18251 -0.52494,2.85796 -0.52436,-0.32408 -0.72888,0.76679 -0.47195,2.51733 0.26922,1.83434 0.0618,2.84721 -0.51064,2.49342 -0.56761,-0.3508 -0.75822,0.48092 -0.46352,2.02255 0.30628,1.6022 0.11224,2.37838 -0.5,2 -0.61349,-0.37916 -0.80467,0.40621 -0.49421,2.03027 0.27847,1.45674 0.0706,2.64862 -0.462,2.64862 -0.53257,0 -0.7093,0.675 -0.39271,1.5 0.31658,0.825 0.0916,1.5 -0.5,1.5 -0.59159,0 -0.81659,0.675 -0.5,1.5 0.31658,0.825 0.0916,1.5 -0.5,1.5 -0.59159,0 -0.80762,0.69837 -0.48007,1.55194 0.38909,1.01395 0.19394,1.30374 -0.56295,0.83595 -0.77368,-0.47816 -0.94638,-0.16325 -0.51993,0.94807 0.35167,0.91645 0.15532,1.66404 -0.43705,1.66404 -0.59159,0 -0.80762,0.69837 -0.48007,1.55194 0.32754,0.85356 0.19784,1.30615 -0.28823,1.00574 -1.06621,-0.65895 -2.33146,2.248 -1.53756,3.53256 0.30925,0.50037 0.0376,0.90976 -0.60374,0.90976 -0.6413,0 -0.90699,0.675 -0.5904,1.5 0.31658,0.825 0.13972,1.5 -0.39301,1.5 -0.53274,0 -0.85612,0.5625 -0.71862,1.25 0.1375,0.6875 -0.36771,1.1191 -1.12268,0.95911 -0.87357,-0.18513 -1.15768,0.26938 -0.78139,1.25 0.32522,0.84749 0.12887,1.54089 -0.43633,1.54089 -0.5652,0 -0.74952,0.45 -0.4096,1 0.33992,0.55 0.0665,1 -0.60765,1 -0.67413,0 -0.93268,0.29301 -0.57456,0.65112 0.35812,0.35812 -0.12938,1.29149 -1.08333,2.07416 -1.15734,0.94954 -1.23535,1.20732 -0.23446,0.77472 1.00089,-0.4326 0.92288,-0.17482 -0.23446,0.77472 -0.95395,0.78267 -1.45204,1.70545 -1.10687,2.05062 0.34517,0.34517 -0.10924,0.91033 -1.0098,1.25591 -0.90056,0.34557 -1.40744,1.00038 -1.1264,1.45511 0.28105,0.45474 -0.49667,1.53259 -1.72825,2.39522 -1.23158,0.86263 -1.8016,1.5846 -1.26673,1.60438 0.53488,0.0198 -0.37749,1.19417 -2.02749,2.60975 -1.65,1.41558 -2.325,2.21302 -1.5,1.77208 1.28879,-0.68882 1.30803,-0.56501 0.13669,0.87924 -0.74982,0.92452 -1.87482,1.38876 -2.5,1.03163 -0.62518,-0.35712 -0.80309,-0.28107 -0.39537,0.16901 0.89165,0.98424 -1.13607,3.68541 -2.24984,2.99706 -0.43005,-0.26578 -1.04891,0.21254 -1.37524,1.06295 -0.40034,1.04328 -0.19048,1.31076 0.64521,0.82236 0.6812,-0.3981 0.39091,0.24291 -0.6451,1.42448 -1.036,1.18158 -2.386,1.86178 -3,1.51157 -0.61399,-0.35021 -0.78275,-0.2685 -0.37503,0.18158 1.03553,1.14307 -1.11324,3.48871 -2.65422,2.89738 -0.69667,-0.26734 -1.90127,0.32191 -2.67689,1.30944 -1.31266,1.67131 -1.27186,1.69439 0.58979,0.3337 1.1,-0.80399 0.68281,-0.0212 -0.9271,1.73957 -1.6099,1.76076 -3.12827,3.00021 -3.37414,2.75433 -0.24587,-0.24587 -1.27621,0.54632 -2.28963,1.76043 -1.01343,1.21412 -1.85756,1.76985 -1.87586,1.23497 -0.0183,-0.53487 -0.73906,0.0351 -1.60169,1.26673 -0.86263,1.23158 -1.94048,2.0093 -2.39522,1.72825 -0.45473,-0.28104 -1.08191,0.15385 -1.39372,0.96641 -0.31181,0.81257 -1.21228,1.22976 -2.00103,0.92709 -0.79333,-0.30443 -2.07905,0.37048 -2.87755,1.51049 -0.7939,1.13345 -1.74059,1.76368 -2.10375,1.40051 C 440.29714,351.9638 440,352.21822 440,352.89235 c 0,0.67413 -0.45,0.94757 -1,0.60765 -0.55,-0.33992 -1,-0.0665 -1,0.60765 0,0.67413 -0.29301,0.93268 -0.65112,0.57456 -0.35812,-0.35812 -1.29149,0.12938 -2.07416,1.08333 -0.94954,1.15734 -1.20732,1.23535 -0.77472,0.23446 0.5195,-1.20196 0.38521,-1.18452 -0.67584,0.0878 -0.72829,0.87327 -1.88666,1.39827 -2.57416,1.16667 -0.6875,-0.23161 -1.25,0.093 -1.25,0.72124 0,0.6283 -0.45,0.86424 -1,0.52432 -0.55,-0.33992 -1,-0.11492 -1,0.5 0,0.61492 -0.45,0.83992 -1,0.5 -0.55,-0.33992 -1,-0.1556 -1,0.4096 0,0.5652 -0.675,0.76861 -1.5,0.45203 -0.825,-0.31659 -1.5,-0.0509 -1.5,0.5904 0,0.6413 -0.45,0.88789 -1,0.54797 -0.55,-0.33992 -1,-0.18361 -1,0.34736 0,0.53097 -0.97037,0.71164 -2.15637,0.4015 -1.46652,-0.38351 -1.92978,-0.19726 -1.44806,0.58216 0.4592,0.74301 0.16251,0.93663 -0.84363,0.55054 C 415.69837,363.05401 415,363.27004 415,363.86163 c 0,0.59158 -0.675,0.81658 -1.5,0.5 -0.825,-0.31659 -1.5,-0.13986 -1.5,0.39271 0,0.53257 -1.19188,0.74047 -2.64862,0.462 -1.70286,-0.32552 -2.41653,-0.13076 -1.99862,0.54541 0.40509,0.65546 -0.10409,0.85453 -1.35138,0.52836 C 404.90062,366.00225 404,366.20682 404,366.7447 c 0,0.53787 -1.125,0.7629 -2.5,0.50005 -1.375,-0.26285 -2.5,-0.0658 -2.5,0.43787 0,0.50368 -1.575,0.73191 -3.5,0.50717 -1.925,-0.22473 -3.5,-0.0219 -3.5,0.4508 0,0.47268 -7.38203,0.85941 -16.40451,0.85941 -9.02248,0 -16.16322,-0.39042 -15.8683,-0.86759 z M 209.75,294.33772 c 0.6875,-0.27741 1.8125,-0.27741 2.5,0 0.6875,0.27741 0.125,0.50439 -1.25,0.50439 -1.375,0 -1.9375,-0.22698 -1.25,-0.50439 z m 328.51903,-0.0307 c 0.97297,-0.25354 2.32297,-0.23687 3,0.0371 0.67703,0.27393 -0.11903,0.48137 -1.76903,0.46099 -1.65,-0.0204 -2.20394,-0.2445 -1.23097,-0.49804 z m -366,-1 c 0.97297,-0.25354 2.32297,-0.23687 3,0.0371 0.67703,0.27393 -0.11903,0.48137 -1.76903,0.46099 -1.65,-0.0204 -2.20394,-0.2445 -1.23097,-0.49804 z m 404.48097,0.0307 c 0.6875,-0.27741 1.8125,-0.27741 2.5,0 0.6875,0.27741 0.125,0.50439 -1.25,0.50439 -1.375,0 -1.9375,-0.22698 -1.25,-0.50439 z m 23.0625,-1.02083 c 0.72187,-0.28887 1.58438,-0.25335 1.91667,0.0789 0.33229,0.33229 -0.25834,0.56864 -1.3125,0.52522 -1.16495,-0.048 -1.4019,-0.28494 -0.60417,-0.60416 z M 110,287.87052 C 90.466033,283.78386 83.018312,280.10757 73.546054,269.8764 63.305152,258.815 61.266565,252.182 56.526667,214.5 51.723966,176.31871 48.316848,156.92564 44.755611,147.5 43.093184,143.1 36.560184,127.125 30.237834,112 23.915483,96.875 16.302644,78.249665 13.320414,70.610366 10.338183,62.971068 7.0716002,55.096068 6.0613406,53.110366 5.051081,51.124665 3.2152046,45.752333 1.9816153,41.17185 -2.6465609,23.986812 2.1765899,9.1731509 14.5,2.7233095 c 10.018747,-5.2436241 44.328437,-1.95446353 61,5.8478756 2.75,1.2870078 12.2,5.1495329 21,8.5833899 29.06953,11.343249 60.19316,28.181685 78.88487,42.678115 3.30992,2.567021 6.66596,5.157764 7.45787,5.757207 1.18893,0.899967 0.35073,2.381215 -4.80989,8.5 C 136.91265,122.84479 114.88687,186.50434 117.34212,249.5 c 0.53925,13.83583 2.37993,30.75548 4.16121,38.25 0.64089,2.69646 0.80143,2.69478 -11.50333,0.12052 z m 519.49029,-0.0951 c 1.78669,-7.51261 3.62754,-24.41914 4.16759,-38.27544 2.26447,-58.10078 -16.27372,-116.9226 -51.70628,-164.064395 -3.74887,-4.987739 -8.87655,-11.360307 -11.39485,-14.161262 l -4.57873,-5.092646 10.76099,-7.931237 C 607.67167,35.451978 644.01042,18.539294 697,2.2789116 c 8.28875,-2.54348549 33.16498,-2.48912338 38,0.083042 8.62459,4.5881678 13.17461,12.2203854 14.55405,24.4130174 1.04674,9.251984 -2.55852,20.448495 -20.03639,62.225029 -13.30873,31.81123 -23.56886,59.0215 -27.08234,71.82349 -3.46688,12.63215 -6.77065,32.53762 -10.43177,62.85229 -2.41563,20.0018 -3.91456,26.49735 -8.09906,35.09703 -7.69566,15.81556 -21.50867,24.89328 -44.40449,29.18202 -3.3,0.61815 -7.02395,1.34263 -8.27544,1.60997 -1.94628,0.41576 -2.19715,0.15692 -1.73427,-1.78936 z M 249.87244,131.25 c -1.24387,-1.58606 -1.2085,-1.62143 0.37756,-0.37756 0.9625,0.75485 1.75,1.54235 1.75,1.75 0,0.82304 -0.82119,0.29331 -2.12756,-1.37244 z M 511,118.5 c 1.29175,-1.375 2.57363,-2.5 2.84863,-2.5 0.275,0 -0.55688,1.125 -1.84863,2.5 -1.29175,1.375 -2.57363,2.5 -2.84863,2.5 -0.275,0 0.55688,-1.125 1.84863,-2.5 z M 236.40499,116.75 234.5,114.5 l 2.25,1.90499 c 2.11444,1.79022 2.70524,2.59501 1.90499,2.59501 -0.18976,0 -1.20226,-1.0125 -2.25,-2.25 z m -30,-30 -1.90499,-2.25 2.25,1.904988 C 208.86444,88.195206 209.45524,89 208.65499,89 c -0.18976,0 -1.20226,-1.0125 -2.25,-2.25 z M 543,86.622445 c 0,-0.207656 0.7875,-0.995156 1.75,-1.75 1.58606,-1.243871 1.62143,-1.208501 0.37756,0.377555 C 543.82119,86.915748 543,87.445479 543,86.622445 Z M 450.15789,77 c 0,-1.375 0.22698,-1.9375 0.50439,-1.25 0.27741,0.6875 0.27741,1.8125 0,2.5 -0.27741,0.6875 -0.50439,0.125 -0.50439,-1.25 z"
       id="path3416"
       inkscape:connector-curvature="0" />
    <path
       style="fill:#fda922"
       d="m 216,560.11832 c -41.65922,-9.08392 -74.15411,-26.52586 -104.25,-55.9572 -6.4625,-6.3198 -11.75,-11.8212 -11.75,-12.22534 0,-0.40414 -1.622912,-3.14252 -3.606471,-6.08529 -5.321498,-7.89487 -12.951778,-24.24689 -16.803835,-36.01135 -5.09403,-15.55752 -6.902095,-28.2215 -6.368372,-44.60509 0.387731,-11.90212 0.809312,-14.66775 3.160611,-20.73405 7.298,-18.82868 18.959059,-29.87996 48.252767,-45.72955 l 10.13471,-5.48346 1.15306,3.84858 c 1.97854,6.60378 16.27902,33.8788 23.41419,44.65739 25.75748,38.91006 60.10532,69.38689 101.16334,89.76223 16.94758,8.41036 28.38017,12.83126 45.60007,17.63322 6.53148,1.82137 11.88094,3.72438 11.88768,4.22891 0.0398,2.97895 -22.6932,42.47757 -30.16754,52.41617 -4.2049,5.59122 -13.54475,12.35404 -19.71391,14.27449 -1.98347,0.61745 -12.6063,1.28939 -23.6063,1.49321 -16.72677,0.30993 -21.39112,0.0672 -28.5,-1.48287 z m 264.89213,-0.41085 c -8.22739,-3.47511 -12.29023,-6.23926 -17.0986,-11.63301 -4.76291,-5.34275 -16.18462,-24.07479 -26.10545,-42.81396 l -6.4798,-12.23949 4.14586,-1.07174 c 21.08485,-5.45056 38.09851,-11.78291 56.14586,-20.89705 41.18058,-20.79672 74.03512,-50.06536 99.99887,-89.08455 8.11085,-12.18926 23.6061,-42.23668 23.85338,-46.25498 l 0.14775,-2.40104 7.5,4.00688 c 36.68908,19.60116 49.88154,34.6994 54.10514,61.92113 2.49101,16.05499 -3.26933,44.08457 -14.14829,68.84496 -6.86346,15.62117 -14.10874,25.96522 -26.59703,37.97243 -24.69892,23.74747 -54.47488,41.05241 -86.09598,50.03653 -16.28986,4.62823 -19.53079,5.05676 -41.76384,5.5221 -21.41821,0.44829 -22.1483,0.39783 -27.60787,-1.90821 z M 373.25,499.31067 c 0.9625,-0.25152 2.5375,-0.25152 3.5,0 0.9625,0.25153 0.175,0.45733 -1.75,0.45733 -1.925,0 -2.7125,-0.2058 -1.75,-0.45733 z M 386.30987,471.5 c 0.006,-3.3 0.1923,-4.52944 0.41486,-2.73209 0.22256,1.79735 0.21797,4.49735 -0.0102,6 -0.22818,1.50265 -0.41027,0.0321 -0.40466,-3.26791 z m -23.23092,-19.08333 c 0.048,-1.16495 0.28494,-1.4019 0.60416,-0.60417 0.28887,0.72187 0.25335,1.58438 -0.0789,1.91667 -0.33229,0.33229 -0.56864,-0.25834 -0.52522,-1.3125 z m 1,-18 c 0.048,-1.16495 0.28494,-1.4019 0.60416,-0.60417 0.28887,0.72187 0.25335,1.58438 -0.0789,1.91667 -0.33229,0.33229 -0.56864,-0.25834 -0.52522,-1.3125 z M 385.15789,432 c 0,-1.375 0.22698,-1.9375 0.50439,-1.25 0.27741,0.6875 0.27741,1.8125 0,2.5 -0.27741,0.6875 -0.50439,0.125 -0.50439,-1.25 z m -20.07894,-15.58333 c 0.048,-1.16495 0.28494,-1.4019 0.60416,-0.60417 0.28887,0.72187 0.25335,1.58438 -0.0789,1.91667 -0.33229,0.33229 -0.56864,-0.25834 -0.52522,-1.3125 z M 384.232,402 c 0,-1.925 0.2058,-2.7125 0.45733,-1.75 0.25152,0.9625 0.25152,2.5375 0,3.5 -0.25153,0.9625 -0.45733,0.175 -0.45733,-1.75 z m -0.15305,-11.58333 c 0.048,-1.16495 0.28494,-1.4019 0.60416,-0.60417 0.28887,0.72187 0.25335,1.58438 -0.0789,1.91667 -0.33229,0.33229 -0.56864,-0.25834 -0.52522,-1.3125 z M 299.87244,346.25 c -1.24387,-1.58606 -1.2085,-1.62143 0.37756,-0.37756 1.66575,1.30637 2.19548,2.12756 1.37244,2.12756 -0.20765,0 -0.99515,-0.7875 -1.75,-1.75 z M 449,347.62244 c 0,-0.20765 0.7875,-0.99515 1.75,-1.75 1.58606,-1.24387 1.62143,-1.2085 0.37756,0.37756 C 449.82119,347.91575 449,348.44548 449,347.62244 Z M 295.87244,343.25 c -1.24387,-1.58606 -1.2085,-1.62143 0.37756,-0.37756 1.66575,1.30637 2.19548,2.12756 1.37244,2.12756 -0.20765,0 -0.99515,-0.7875 -1.75,-1.75 z M 453,344.62244 c 0,-0.20765 0.7875,-0.99515 1.75,-1.75 1.58606,-1.24387 1.62143,-1.2085 0.37756,0.37756 C 453.82119,344.91575 453,345.44548 453,344.62244 Z M 290.43709,338.75 287.5,335.5 l 3.25,2.93709 c 1.7875,1.6154 3.25,3.0779 3.25,3.25 0,0.77256 -0.82513,0.0924 -3.56291,-2.93709 z M 457,341.68709 c 0,-0.1721 1.4625,-1.6346 3.25,-3.25 l 3.25,-2.93709 -2.93709,3.25 C 457.82513,341.77946 457,342.45965 457,341.68709 Z M 282.94617,332.25 279.5,328.5 l 3.75,3.44617 c 3.49042,3.20761 4.20979,4.05383 3.44617,4.05383 -0.16711,0 -1.85461,-1.6875 -3.75,-3.75 z M 467,332.5 c 1.86578,-1.925 3.61733,-3.5 3.89233,-3.5 0.275,0 -1.02655,1.575 -2.89233,3.5 -1.86578,1.925 -3.61733,3.5 -3.89233,3.5 -0.275,0 1.02655,-1.575 2.89233,-3.5 z M 276.43709,324.75 273.5,321.5 l 3.25,2.93709 c 3.02946,2.73778 3.70965,3.56291 2.93709,3.56291 -0.1721,0 -1.6346,-1.4625 -3.25,-3.25 z M 471,327.68709 c 0,-0.1721 1.4625,-1.6346 3.25,-3.25 l 3.25,-2.93709 -2.93709,3.25 C 471.82513,327.77946 471,328.45965 471,327.68709 Z M 271.87244,319.25 c -1.24387,-1.58606 -1.2085,-1.62143 0.37756,-0.37756 1.66575,1.30637 2.19548,2.12756 1.37244,2.12756 -0.20765,0 -0.99515,-0.7875 -1.75,-1.75 z M 477,320.62244 c 0,-0.20765 0.7875,-0.99515 1.75,-1.75 1.58606,-1.24387 1.62143,-1.2085 0.37756,0.37756 C 477.82119,320.91575 477,321.44548 477,320.62244 Z M 268.87244,315.25 c -1.24387,-1.58606 -1.2085,-1.62143 0.37756,-0.37756 1.66575,1.30637 2.19548,2.12756 1.37244,2.12756 -0.20765,0 -0.99515,-0.7875 -1.75,-1.75 z M 480,316.62244 c 0,-0.20765 0.7875,-0.99515 1.75,-1.75 1.58606,-1.24387 1.62143,-1.2085 0.37756,0.37756 C 480.82119,316.91575 480,317.44548 480,316.62244 Z M 209.75,294.33772 c 0.6875,-0.27741 1.8125,-0.27741 2.5,0 0.6875,0.27741 0.125,0.50439 -1.25,0.50439 -1.375,0 -1.9375,-0.22698 -1.25,-0.50439 z m 328.51903,-0.0307 c 0.97297,-0.25354 2.32297,-0.23687 3,0.0371 0.67703,0.27393 -0.11903,0.48137 -1.76903,0.46099 -1.65,-0.0204 -2.20394,-0.2445 -1.23097,-0.49804 z m -366,-1 c 0.97297,-0.25354 2.32297,-0.23687 3,0.0371 0.67703,0.27393 -0.11903,0.48137 -1.76903,0.46099 -1.65,-0.0204 -2.20394,-0.2445 -1.23097,-0.49804 z m 404.48097,0.0307 c 0.6875,-0.27741 1.8125,-0.27741 2.5,0 0.6875,0.27741 0.125,0.50439 -1.25,0.50439 -1.375,0 -1.9375,-0.22698 -1.25,-0.50439 z m 23.0625,-1.02083 c 0.72187,-0.28887 1.58438,-0.25335 1.91667,0.0789 0.33229,0.33229 -0.25834,0.56864 -1.3125,0.52522 -1.16495,-0.048 -1.4019,-0.28494 -0.60417,-0.60416 z M 110,287.87052 C 90.466033,283.78386 83.018312,280.10757 73.546054,269.8764 63.305152,258.815 61.266565,252.182 56.526667,214.5 51.723966,176.31871 48.316848,156.92564 44.755611,147.5 43.093184,143.1 36.560184,127.125 30.237834,112 23.915483,96.875 16.302644,78.249665 13.320414,70.610366 10.338183,62.971068 7.0716002,55.096068 6.0613406,53.110366 5.051081,51.124665 3.2152046,45.752333 1.9816153,41.17185 -2.6465609,23.986812 2.1765899,9.1731509 14.5,2.7233095 c 10.018747,-5.2436241 44.328437,-1.95446353 61,5.8478756 2.75,1.2870078 12.2,5.1495329 21,8.5833899 29.06953,11.343249 60.19316,28.181685 78.88487,42.678115 3.30992,2.567021 6.66596,5.157764 7.45787,5.757207 1.18893,0.899967 0.35073,2.381215 -4.80989,8.5 C 136.91265,122.84479 114.88687,186.50434 117.34212,249.5 c 0.53925,13.83583 2.37993,30.75548 4.16121,38.25 0.64089,2.69646 0.80143,2.69478 -11.50333,0.12052 z m 519.49029,-0.0951 c 1.78669,-7.51261 3.62754,-24.41914 4.16759,-38.27544 2.26447,-58.10078 -16.27372,-116.9226 -51.70628,-164.064395 -3.74887,-4.987739 -8.87655,-11.360307 -11.39485,-14.161262 l -4.57873,-5.092646 10.76099,-7.931237 C 607.67167,35.451978 644.01042,18.539294 697,2.2789116 c 8.28875,-2.54348549 33.16498,-2.48912338 38,0.083042 8.62459,4.5881678 13.17461,12.2203854 14.55405,24.4130174 1.04674,9.251984 -2.55852,20.448495 -20.03639,62.225029 -13.30873,31.81123 -23.56886,59.0215 -27.08234,71.82349 -3.46688,12.63215 -6.77065,32.53762 -10.43177,62.85229 -2.41563,20.0018 -3.91456,26.49735 -8.09906,35.09703 -7.69566,15.81556 -21.50867,24.89328 -44.40449,29.18202 -3.3,0.61815 -7.02395,1.34263 -8.27544,1.60997 -1.94628,0.41576 -2.19715,0.15692 -1.73427,-1.78936 z M 268,166.62244 c 0,-0.20765 0.7875,-0.99515 1.75,-1.75 1.58606,-1.24387 1.62143,-1.2085 0.37756,0.37756 C 268.82119,166.91575 268,167.44548 268,166.62244 Z M 480.87244,165.25 c -1.24387,-1.58606 -1.2085,-1.62143 0.37756,-0.37756 0.9625,0.75485 1.75,1.54235 1.75,1.75 0,0.82304 -0.82119,0.29331 -2.12756,-1.37244 z M 271,162.62244 c 0,-0.20765 0.7875,-0.99515 1.75,-1.75 1.58606,-1.24387 1.62143,-1.2085 0.37756,0.37756 C 271.82119,162.91575 271,163.44548 271,162.62244 Z M 477.87244,161.25 c -1.24387,-1.58606 -1.2085,-1.62143 0.37756,-0.37756 1.66575,1.30637 2.19548,2.12756 1.37244,2.12756 -0.20765,0 -0.99515,-0.7875 -1.75,-1.75 z m -228,-30 c -1.24387,-1.58606 -1.2085,-1.62143 0.37756,-0.37756 0.9625,0.75485 1.75,1.54235 1.75,1.75 0,0.82304 -0.82119,0.29331 -2.12756,-1.37244 z m 193.58644,-1.31653 c -0.36253,-0.58659 -0.44468,-1.281 -0.18255,-1.54313 0.26212,-0.26213 0.74306,0.21781 1.06875,1.06653 0.67618,1.76211 0.0999,2.07206 -0.8862,0.4766 z M 511,118.5 c 1.29175,-1.375 2.57363,-2.5 2.84863,-2.5 0.275,0 -0.55688,1.125 -1.84863,2.5 -1.29175,1.375 -2.57363,2.5 -2.84863,2.5 -0.275,0 0.55688,-1.125 1.84863,-2.5 z M 236.40499,116.75 234.5,114.5 l 2.25,1.90499 c 2.11444,1.79022 2.70524,2.59501 1.90499,2.59501 -0.18976,0 -1.20226,-1.0125 -2.25,-2.25 z m -30,-30 -1.90499,-2.25 2.25,1.904988 C 208.86444,88.195206 209.45524,89 208.65499,89 c -0.18976,0 -1.20226,-1.0125 -2.25,-2.25 z M 543,86.622445 c 0,-0.207656 0.7875,-0.995156 1.75,-1.75 1.58606,-1.243871 1.62143,-1.208501 0.37756,0.377555 C 543.82119,86.915748 543,87.445479 543,86.622445 Z M 450.15789,77 c 0,-1.375 0.22698,-1.9375 0.50439,-1.25 0.27741,0.6875 0.27741,1.8125 0,2.5 -0.27741,0.6875 -0.50439,0.125 -0.50439,-1.25 z"
       id="path3414"
       inkscape:connector-curvature="0" />
    <path
       style="fill:#fd6654"
       d="m 216,560.11832 c -41.65922,-9.08392 -74.15411,-26.52586 -104.25,-55.9572 -6.4625,-6.3198 -11.75,-11.8212 -11.75,-12.22534 0,-0.40414 -1.622912,-3.14252 -3.606471,-6.08529 -5.321498,-7.89487 -12.951778,-24.24689 -16.803835,-36.01135 -5.09403,-15.55752 -6.902095,-28.2215 -6.368372,-44.60509 0.387731,-11.90212 0.809312,-14.66775 3.160611,-20.73405 7.272251,-18.76225 19.430964,-30.31239 47.883107,-45.48646 l 9.76504,-5.20787 2.16419,5.34716 c 4.23301,10.45868 16.46157,33.50367 23.15713,43.64013 34.58771,52.3626 84.72175,88.95855 145.89412,106.49721 6.46004,1.85215 12.02459,3.64661 12.36566,3.98768 1.3483,1.3483 -21.2126,41.14902 -29.79097,52.55564 -4.2049,5.59122 -13.54475,12.35404 -19.71391,14.27449 -1.98347,0.61745 -12.6063,1.28939 -23.6063,1.49321 -16.72677,0.30993 -21.39112,0.0672 -28.5,-1.48287 z m 264.89213,-0.41085 c -8.22739,-3.47511 -12.29023,-6.23926 -17.0986,-11.63301 -4.74922,-5.32739 -16.18037,-24.06638 -26.02432,-42.66145 l -6.39868,-12.08699 13.1336,-3.69902 c 18.63873,-5.24952 29.829,-9.55262 46.99587,-18.07181 40.92922,-20.31142 74.77366,-50.29685 100.06758,-88.65769 6.93988,-10.52503 18.43198,-32.06407 22.4877,-42.1475 1.27201,-3.1625 2.93007,-5.75 3.68457,-5.75 2.38037,0 23.00218,12.22811 32.0421,19 16.01669,11.99826 24.29131,25.69875 27.32319,45.23966 2.49101,16.05499 -3.26933,44.08457 -14.14829,68.84496 -6.86346,15.62117 -14.10874,25.96522 -26.59703,37.97243 -24.69892,23.74747 -54.47488,41.05241 -86.09598,50.03653 -16.28986,4.62823 -19.53079,5.05676 -41.76384,5.5221 -21.41821,0.44829 -22.1483,0.39783 -27.60787,-1.90821 z M 373.25,499.31067 c 0.9625,-0.25152 2.5375,-0.25152 3.5,0 0.9625,0.25153 0.175,0.45733 -1.75,0.45733 -1.925,0 -2.7125,-0.2058 -1.75,-0.45733 z M 110,287.87052 C 90.466033,283.78386 83.018312,280.10757 73.546054,269.8764 63.305152,258.815 61.266565,252.182 56.526667,214.5 51.723966,176.31871 48.316848,156.92564 44.755611,147.5 43.093184,143.1 36.560184,127.125 30.237834,112 23.915483,96.875 16.302644,78.249665 13.320414,70.610366 10.338183,62.971068 7.0716002,55.096068 6.0613406,53.110366 5.051081,51.124665 3.2152046,45.752333 1.9816153,41.17185 -2.6465609,23.986812 2.1765899,9.1731509 14.5,2.7233095 c 10.018747,-5.2436241 44.328437,-1.95446353 61,5.8478756 2.75,1.2870078 12.2,5.1495329 21,8.5833899 29.60589,11.552542 57.64087,26.719952 78.65861,42.555663 l 8.65861,6.523788 -6.01705,7.132987 C 138.87785,119.50794 117.00683,179.63572 117.00683,240.5 c 0,13.18236 1.40843,30.54443 3.41282,42.07088 0.92264,5.30572 0.97584,7.40883 0.18612,7.35812 C 119.9976,289.89 115.225,288.96363 110,287.87052 Z m 520.58347,-5.31757 c 2.00146,-11.5096 3.4097,-28.87782 3.4097,-42.05295 0,-60.98857 -21.85461,-120.96713 -60.97974,-167.354988 -3.4119,-4.045243 -5.8232,-7.701419 -5.35844,-8.124834 C 571.15005,61.836013 589.3158,49.21605 597.5,44.286502 624.20363,28.20223 655.28942,15.078219 697,2.2789116 c 8.28875,-2.54348549 33.16498,-2.48912338 38,0.083042 8.62459,4.5881678 13.17461,12.2203854 14.55405,24.4130174 1.04674,9.251984 -2.55852,20.448495 -20.03639,62.225029 -13.30873,31.81123 -23.56886,59.0215 -27.08234,71.82349 -3.46688,12.63215 -6.77065,32.53762 -10.43177,62.85229 -2.41563,20.0018 -3.91456,26.49735 -8.09906,35.09703 -7.69566,15.81556 -21.50867,24.89328 -44.40449,29.18202 -3.3,0.61815 -6.94619,1.32311 -8.10265,1.5666 -2.07687,0.43728 -2.08685,0.35185 -0.81388,-6.96848 z"
       id="path3412"
       inkscape:connector-curvature="0" />
    <path
       style="fill:#fd208a"
       d="m 216,560.11832 c -41.65922,-9.08392 -74.15411,-26.52586 -104.25,-55.9572 -6.4625,-6.3198 -11.75,-11.8212 -11.75,-12.22534 0,-0.40414 -1.622912,-3.14252 -3.606471,-6.08529 C 91.072031,477.95562 83.441751,461.6036 79.589694,449.83914 74.495664,434.28162 72.687599,421.61764 73.221322,405.23405 73.609053,393.33193 74.030634,390.5663 76.381933,384.5 81.685574,370.81672 90.396506,360.20075 103.72914,351.17209 111.17799,346.12784 131.00448,335 132.54298,335 c 0.59894,0 2.12973,2.5875 3.40174,5.75 4.05572,10.08343 15.54782,31.62247 22.4877,42.1475 34.55305,52.40327 85.72879,89.93709 146.06758,107.13034 6.05,1.72392 11.60187,3.32388 12.33748,3.55547 2.26187,0.71207 -18.85739,38.74063 -29.01727,52.25018 -4.2049,5.59122 -13.54475,12.35404 -19.71391,14.27449 -1.98347,0.61745 -12.6063,1.28939 -23.6063,1.49321 -16.72677,0.30993 -21.39112,0.0672 -28.5,-1.48287 z m 264.89213,-0.41085 c -8.22739,-3.47511 -12.29023,-6.23926 -17.0986,-11.63301 -4.81303,-5.39897 -16.53604,-24.62163 -25.7791,-42.27096 l -6.12552,-11.6965 4.30554,-1.11473 c 21.31842,-5.51945 38.20899,-11.80106 56.30555,-20.94005 41.06452,-20.7381 74.73723,-50.73864 100.06758,-89.15472 6.93988,-10.52503 18.43198,-32.06407 22.4877,-42.1475 1.27201,-3.1625 2.70507,-5.75 3.18457,-5.75 1.96723,0 23.46658,12.95056 31.5421,19 16.01669,11.99826 24.29131,25.69875 27.32319,45.23966 2.49101,16.05499 -3.26933,44.08457 -14.14829,68.84496 -6.86346,15.62117 -14.10874,25.96522 -26.59703,37.97243 -24.69892,23.74747 -54.47488,41.05241 -86.09598,50.03653 -16.28986,4.62823 -19.53079,5.05676 -41.76384,5.5221 -21.41821,0.44829 -22.1483,0.39783 -27.60787,-1.90821 z M 110,287.87052 C 90.466033,283.78386 83.018312,280.10757 73.546054,269.8764 63.305152,258.815 61.266565,252.182 56.526667,214.5 51.723966,176.31871 48.316848,156.92564 44.755611,147.5 43.093184,143.1 36.560184,127.125 30.237834,112 23.915483,96.875 16.302644,78.249665 13.320414,70.610366 10.338183,62.971068 7.0716002,55.096068 6.0613406,53.110366 5.051081,51.124665 3.2152046,45.752333 1.9816153,41.17185 -2.6465609,23.986812 2.1765899,9.1731509 14.5,2.7233095 c 10.018747,-5.2436241 44.328437,-1.95446353 61,5.8478756 2.75,1.2870078 12.2,5.1495329 21,8.5833899 29.09214,11.352072 60.31903,28.250218 78.86694,42.678115 3.30005,2.567021 6.41705,4.949485 6.92667,5.294366 0.50961,0.34488 -1.87177,3.94488 -5.29196,8 C 137.86012,119.53486 116.00683,179.50141 116.00683,240.5 c 0,13.18236 1.40843,30.54443 3.41282,42.07088 0.71054,4.08602 1.01929,7.39717 0.68612,7.35812 C 119.7726,289.89 115.225,288.96363 110,287.87052 Z m 521.60685,-5.45201 c 8.96388,-51.54765 0.29623,-109.0721 -23.70755,-157.33934 -10.05884,-20.2265 -23.54115,-40.566584 -36.28359,-54.739252 l -4.51977,-5.027072 10.20203,-7.492207 C 607.86224,35.37473 644.40935,18.416878 697,2.2789116 c 8.28875,-2.54348549 33.16498,-2.48912338 38,0.083042 8.62459,4.5881678 13.17461,12.2203854 14.55405,24.4130174 1.04674,9.251984 -2.55852,20.448495 -20.03639,62.225029 -13.30873,31.81123 -23.56886,59.0215 -27.08234,71.82349 -3.46688,12.63215 -6.77065,32.53762 -10.43177,62.85229 -2.41563,20.0018 -3.91456,26.49735 -8.09906,35.09703 -7.88141,16.1973 -21.52482,24.95301 -45.98376,29.51025 l -7.57927,1.41219 1.26539,-7.27674 z"
       id="path3410"
       inkscape:connector-curvature="0" />
  </g>
</svg>
